<?xml version="1.0" encoding="utf-8"?>
<svg version="1.1" id="Layer_1" x="0px" y="0px" viewBox="0 0 511.999 511.999" style="enable-background:new 0 0 511.999 511.999;" xmlns="http://www.w3.org/2000/svg">
  <polygon style="fill:#564531;" points="314.999 95.635 305.391 37.42 347.332 37.42 336.732 95.522" transform="matrix(0.906308, 0.422618, -0.422618, 0.906308, 58.693214, -131.693147)"/>
  <path style="fill:#FFC477;" d="M 49.778 229.588 L 49.778 304.6 C 49.778 333.603 55.837 361.236 66.686 386.422 C 77.909 412.572 94.308 436.162 114.749 455.867 C 135.202 475.55 159.631 491.394 186.753 502.22 L 186.764 502.22 C 213.888 491.394 238.293 475.549 258.768 455.867 C 279.187 436.161 295.609 412.572 306.809 386.422 C 317.691 361.236 323.739 333.602 323.739 304.6 L 323.739 229.612 L 49.778 229.588 Z" transform="matrix(0.906308, 0.422618, -0.422618, 0.906308, 172.135422, -44.645192)"/>
  <path style="fill:#836948;" d="M 129.429 250.501 L 129.429 227.753 C 129.429 144.343 197.673 76.1 281.082 76.1 C 364.492 76.1 432.735 144.344 432.735 227.753 L 432.735 250.501 L 129.429 250.501 Z" transform="matrix(0.906308, 0.422618, -0.422618, 0.906308, 95.348894, -103.490345)"/>
  <path style="opacity:0.26;fill:#564531;enable-background:new    ;" d="M 302.85 103.289 C 320.762 128.185 331.343 158.665 331.343 191.498 L 331.343 249.164 L 316.809 249.164 L 316.809 289.226 C 316.809 318.229 310.761 345.862 299.879 371.048 C 288.679 397.198 272.257 420.788 251.838 440.493 C 231.362 460.176 206.957 476.02 179.834 486.846 L 179.823 486.846 C 159.336 478.668 140.389 467.624 123.528 454.229 C 129.457 461.705 135.878 468.8 142.769 475.444 C 163.222 495.127 187.651 510.971 214.773 521.797 L 214.784 521.797 C 241.908 510.971 266.313 495.127 286.788 475.444 C 307.207 455.739 323.629 432.149 334.829 405.999 C 345.711 380.813 351.759 353.179 351.759 324.177 L 351.759 249.197 L 366.292 249.197 L 366.292 226.449 C 366.292 175.874 341.198 130.88 302.85 103.289 Z" transform="matrix(0.906308, 0.422618, -0.422618, 0.906308, 155.032434, -74.220567)"/>
  <path d="M 157.921 416.713 C 159.399 418.138 161.304 418.847 163.206 418.847 C 165.203 418.847 167.196 418.067 168.69 416.516 C 171.61 413.487 171.521 408.666 168.493 405.747 C 148.564 386.535 132.968 364.004 122.138 338.773 C 111.332 313.685 105.853 287.168 105.853 259.963 C 105.853 255.755 102.444 252.346 98.236 252.346 C 94.028 252.346 90.619 255.755 90.619 259.963 C 90.619 289.253 96.517 317.796 108.144 344.789 C 119.775 371.887 136.523 396.086 157.921 416.713 Z" transform="matrix(0.906308, 0.422618, -0.422618, 0.906308, 154.076661, -23.802372)"/>
  <path d="M 345.995 105.19 C 321.105 80.299 289.55 64.647 255.471 59.93 L 262.133 18.488 C 262.487 16.285 261.858 14.038 260.411 12.339 C 258.964 10.64 256.845 9.661 254.613 9.661 L 212.673 9.661 C 210.442 9.661 208.322 10.64 206.875 12.338 C 205.428 14.037 204.798 16.285 205.153 18.487 L 211.809 59.892 C 177.626 64.563 145.97 80.232 121.014 105.189 C 90.847 135.354 74.234 175.304 74.234 217.679 L 74.234 240.427 C 74.234 244.635 77.643 248.044 81.851 248.044 L 89.045 248.044 L 89.045 316.423 C 89.045 345.713 94.944 374.256 106.571 401.248 C 118.2 428.345 134.947 452.544 156.352 473.177 C 177.814 493.831 202.867 509.961 230.814 521.117 C 231.713 521.475 232.682 521.659 233.649 521.659 C 234.616 521.659 235.575 521.474 236.472 521.117 C 264.38 509.977 289.432 493.849 310.942 473.169 C 332.372 452.488 349.111 428.288 360.685 401.264 C 372.334 374.307 378.24 345.762 378.24 316.421 L 378.24 248.042 L 385.156 248.042 C 389.364 248.042 392.773 244.633 392.773 240.425 L 392.773 217.677 C 392.774 175.305 376.162 135.355 345.995 105.19 Z M 221.612 24.895 L 245.674 24.895 L 240.261 58.561 C 238.016 58.467 235.764 58.41 233.504 58.41 C 231.337 58.41 229.178 58.465 227.023 58.551 L 221.612 24.895 Z M 233.505 73.644 C 312.926 73.644 377.54 138.258 377.54 217.679 L 377.54 232.809 L 89.469 232.809 L 89.469 217.679 C 89.469 216.79 89.486 215.905 89.503 215.019 C 113.154 214.983 190.13 215.021 233.501 215.05 C 233.503 215.05 233.504 215.05 233.506 215.05 C 237.711 215.05 241.12 211.644 241.123 207.438 C 241.126 203.231 237.718 199.819 233.511 199.816 C 233.511 199.816 195.687 199.791 157.862 199.777 C 138.95 199.771 120.035 199.769 105.849 199.772 C 99.761 199.774 94.555 199.778 90.581 199.783 C 99.418 128.777 160.143 73.644 233.505 73.644 Z M 363.008 316.423 C 363.008 343.673 357.523 370.185 346.693 395.245 C 335.913 420.415 320.326 442.945 300.375 462.198 C 281.026 480.8 258.587 495.467 233.644 505.821 C 208.667 495.453 186.229 480.788 166.921 462.206 C 146.991 442.993 131.396 420.463 120.567 395.232 C 109.76 370.143 104.281 343.628 104.281 316.423 L 104.281 248.044 L 363.008 248.044 L 363.008 316.423 Z" transform="matrix(0.906308, 0.422618, -0.422618, 0.906308, 134.150133, -73.792545)"/>
  <g transform="matrix(0.906308, 0.422618, -0.422618, 0.906308, 109.678726, -74.543938)"/>
  <g transform="matrix(0.906308, 0.422618, -0.422618, 0.906308, 109.678726, -74.543938)"/>
  <g transform="matrix(0.906308, 0.422618, -0.422618, 0.906308, 109.678726, -74.543938)"/>
  <g transform="matrix(0.906308, 0.422618, -0.422618, 0.906308, 109.678726, -74.543938)"/>
  <g transform="matrix(0.906308, 0.422618, -0.422618, 0.906308, 109.678726, -74.543938)"/>
  <g transform="matrix(0.906308, 0.422618, -0.422618, 0.906308, 109.678726, -74.543938)"/>
  <g transform="matrix(0.906308, 0.422618, -0.422618, 0.906308, 109.678726, -74.543938)"/>
  <g transform="matrix(0.906308, 0.422618, -0.422618, 0.906308, 109.678726, -74.543938)"/>
  <g transform="matrix(0.906308, 0.422618, -0.422618, 0.906308, 109.678726, -74.543938)"/>
  <g transform="matrix(0.906308, 0.422618, -0.422618, 0.906308, 109.678726, -74.543938)"/>
  <g transform="matrix(0.906308, 0.422618, -0.422618, 0.906308, 109.678726, -74.543938)"/>
  <g transform="matrix(0.906308, 0.422618, -0.422618, 0.906308, 109.678726, -74.543938)"/>
  <g transform="matrix(0.906308, 0.422618, -0.422618, 0.906308, 109.678726, -74.543938)"/>
  <g transform="matrix(0.906308, 0.422618, -0.422618, 0.906308, 109.678726, -74.543938)"/>
  <g transform="matrix(0.906308, 0.422618, -0.422618, 0.906308, 109.678726, -74.543938)"/>
</svg>