<svg xmlns="http://www.w3.org/2000/svg" version="1.1" xmlns:xlink="http://www.w3.org/1999/xlink" xmlns:svgjs="http://svgjs.com/svgjs" width="512" height="512" x="0" y="0" viewBox="0 0 64 64" style="enable-background:new 0 0 512 512" xml:space="preserve" class=""><g><g xmlns="http://www.w3.org/2000/svg"><g><path d="m29.002 33 1.45 2.41c-.75.44-1.58.81-2.45 1.08-1.09.33-2.27.51-3.5.51-.93 0-1.84-.1-2.7-.3-.78-.18-1.52-.43-2.21-.75-.95.9-2.01 1.6-3.14 2.1-4.03 1.79-8.92 1.03-12.23-2.27-4.29-4.3-4.29-11.26 0-15.56.86-.86 1.84-1.54 2.87-2.06-.35-2.41.39-4.96 2.25-6.82l.66-.59 6.87 3.71 2.15-2.32 3.11-.56.16-7.9c2.691-1.68 6.05-2.68 9.71-2.68s7.03 1.01 9.72 2.69l.15 7.89 3.11.56 2.15 2.32 6.87-3.71c2.59 1.95 3.26 5 2.91 7.41 1.03.52 2.01 1.2 2.87 2.06 4.29 4.3 4.29 11.26 0 15.56-3.31 3.3-8.2 4.06-12.23 2.27-1.13-.5-2.19-1.2-3.14-2.1-.69.32-1.43.57-2.21.75-.86.2-1.77.3-2.7.3-1.23 0-2.41-.18-3.5-.51-.87-.27-1.7-.64-2.45-1.08l1.45-2.41h4l-4-7-3 1-3-1-4 7zm25.04-5.28 2.9-5.06-5.83-.17-1.96-3.49-4.15 6.91 2.34 2.13.59 3.11 8.06.06zm-19.04-7.72 4-7h-4l-3-5-3 5h-4l4 7 3-1zm-15.999 5.91-4.151-6.91-1.96 3.49-5.83.17 2.9 5.06-1.95 3.49 8.06-.06.59-3.11z" fill="#ed7132" data-original="#ed7132" class=""></path><path d="m35.002 26 4 7h-4l-1.45 2.41-1.55 2.59-1.55-2.59-1.45-2.41h-3.999l3.999-7 3 1z" fill="#ec9e15" data-original="#ec9e15"></path><path d="m12.755 12.235 4.114 2.221 2.153-2.315 3.112-.561.085-4.361.069-3.532.001-.008-3.511 1.758-5.03-2.95-.235 5.826-3.511 2.436z" fill="#fdb62f" data-original="#fdb62f"></path><path d="m41.738 4.634.133 6.946 3.112.561 2.153 2.315 6.866-3.703-3.51-2.44-.235-5.826-5.03 2.95-3.507-1.751v.002.019z" fill="#fdb62f" data-original="#fdb62f"></path><path d="m21.8 36.7c.86.2 1.77.3 2.7.3 1.23 0 2.41-.18 3.5-.51.873-.27 1.688-.645 2.442-1.091l-1.44-2.399h-4s-.33 0-.503 0c-.93 0-1.84-.1-2.7-.3-.78-.18-1.52-.43-2.21-.75-.95.9-2.01 1.6-3.14 2.1-4.03 1.79-8.92 1.03-12.23-2.27-1.64-1.644-2.644-3.677-3.028-5.801-.64 3.444.367 7.134 3.028 9.801 3.31 3.3 8.2 4.06 12.23 2.27 1.13-.5 2.19-1.2 3.14-2.1.691.32 1.431.57 2.211.75z" fill="#dd5c2f" data-original="#dd5c2f"></path><path d="m62.805 25.961c-.382 2.13-1.381 4.171-3.025 5.819-3.31 3.3-8.2 4.06-12.23 2.27-1.13-.5-2.19-1.2-3.14-2.1-.69.32-1.43.57-2.21.75-.86.2-1.77.3-2.7.3-.171 0-.497 0-.497 0h-4l-1.44 2.401c.752.445 1.566.82 2.438 1.089 1.09.33 2.27.51 3.5.51.93 0 1.84-.1 2.7-.3.39-.09.77-.198 1.139-.323s.726-.267 1.071-.427c.712.675 1.487 1.238 2.306 1.688.273.15.551.287.834.412 4.03 1.79 8.92 1.03 12.23-2.27 2.664-2.672 3.671-6.37 3.024-9.819z" fill="#dd5c2f" data-original="#dd5c2f"></path><path d="m44.41 35.95c-.345.16-.703.302-1.071.427s-.749.233-1.139.323c0 0-1.28 2.66-6.2 4.3v-4.51c-.872-.27-1.686-.644-2.438-1.089l-1.56 2.599-1.561-2.601c-.753.446-1.568.821-2.441 1.091v4.51c-4.92-1.64-6.2-4.3-6.2-4.3-.78-.18-1.52-.43-2.21-.75-.95.9-2.01 1.6-3.14 2.1v.01c4.8 6.12 10.55 6.94 10.55 6.94l-1 18h8.56 3.44l-1-18s5.75-.82 10.55-6.94v-.01c-.282-.125-.561-.262-.834-.412-.819-.45-1.594-1.013-2.306-1.688z" fill="#895229" data-original="#895229"></path><path d="m26 63h8.56 3.44l-1-18s-1.345 15.995-11 18z" fill="#72401f" data-original="#72401f"></path><path d="m28.27 63h2.779s.579-19.989-.766-19.793-2.013 19.793-2.013 19.793z" fill="#a56c46" data-original="#a56c46"></path><circle cx="41.139" cy="26.141" fill="#dd5c2f" r="1.859" data-original="#dd5c2f"></circle><circle cx="24.498" cy="22.5" fill="#dd5c2f" r="1.5" data-original="#dd5c2f"></circle><g fill="#ef9d66"><circle cx="27.865" cy="7.138" r="1.138" fill="#ef9d66" data-original="#ef9d66"></circle><circle cx="15.135" cy="17.138" r="1.138" fill="#ef9d66" data-original="#ef9d66"></circle><circle cx="52.588" cy="16.591" r="1.409" fill="#ef9d66" data-original="#ef9d66"></circle></g><path d="m32.002 8 3 5h4l-4 7-3-1-3 1-3.999-7h4z" fill="#fdb62f" data-original="#fdb62f"></path><path d="m56.938 22.663-5.829-.173-1.955-3.49-4.152 6.911 2.339 2.129.594 3.106 8.062.067-1.955-3.489z" fill="#ec9e15" data-original="#ec9e15"></path><path d="m7.067 22.663 5.829-.173 1.955-3.49 4.152 6.911-2.339 2.129-.594 3.106-8.062.067 1.955-3.489z" fill="#ec9e15" data-original="#ec9e15"></path></g><g fill="#252525"><circle cx="33.56" cy="51.53" r="1" fill="#252525" data-original="#252525" class=""></circle><path d="m60.489 19.513c-.737-.737-1.581-1.38-2.513-1.915.159-2.473-.641-5.59-3.372-7.646-.004-.003-.009-.003-.013-.006-.007-.005-.011-.012-.018-.016l-3.102-2.156-.22-5.323c-.014-.351-.212-.669-.52-.837-.309-.167-.683-.162-.985.016l-4.562 2.676-3.007-1.506c-2.961-1.831-6.476-2.8-10.175-2.8-3.71 0-7.228.969-10.184 2.799l-2.998 1.504-4.562-2.675c-.303-.178-.677-.183-.985-.016-.308.168-.506.486-.52.837l-.219 5.323s-2.086 1.111-3.545 2.537c-2.201 2.152-3.128 4.711-2.96 7.288-.933.536-1.776 1.178-2.514 1.916-4.669 4.68-4.669 12.293.002 16.975 2.289 2.281 5.385 3.494 8.512 3.494 1.384 0 2.771-.253 4.1-.741 3.791 4.533 8.009 6.077 9.825 6.553l-.953 17.149c-.015.274.083.543.272.743.189.201.452.314.727.314h12c.275 0 .538-.113.727-.313s.287-.469.272-.743l-.953-17.149c1.816-.477 6.035-2.02 9.826-6.555 1.331.488 2.718.742 4.104.742 3.128 0 6.225-1.213 8.515-3.496 4.668-4.679 4.668-12.293-.002-16.973zm-15.714-13.178c.303.151.661.14.953-.032l3.593-2.107.172 4.155c.013.313.171.602.428.78l2.175 1.512-4.758 2.569-1.133-1.224 1.668-3.053c.265-.484.086-1.093-.398-1.357-.486-.264-1.092-.086-1.357.398l-1.667 3.051-1.594-.287-.103-5.417zm-30.692 2.796c.257-.179.416-.468.428-.78l.171-4.155 3.594 2.107c.292.171.651.184.954.031l2.028-1.017-.11 5.424-1.595.287-1.667-3.051c-.265-.484-.873-.662-1.357-.398-.484.265-.663.873-.398 1.357l1.668 3.053-1.133 1.224-4.757-2.569zm22.776 34.879c-.514.073-.886.527-.857 1.046l.941 16.944h-1.453l-.492-6.747c-.04-.55-.514-.964-1.07-.924-.551.04-.965.52-.925 1.07l.481 6.601h-6.427l.941-16.944c.029-.519-.344-.973-.857-1.046-.05-.007-4.821-.746-9.141-5.655.624-.362 1.228-.761 1.785-1.235.439.173.899.315 1.369.44.602.897 2.385 3.007 6.529 4.388.378.142 1.317.038 1.317-.948v-3.817c.365-.137.722-.287 1.072-.457l1.072 1.788c.181.301.507.486.858.486s.677-.185.858-.486l1.073-1.788c.348.168.704.318 1.067.455v3.819c0 .943.863 1.108 1.316.948 4.141-1.38 5.924-3.488 6.527-4.386.277-.074.809-.162 1.376-.443.556.474 1.159.872 1.782 1.233-4.297 4.879-9.094 5.65-9.142 5.658zm-12.558-6.038c.903.012 1.808-.06 2.699-.229v1.807c-1.178-.508-2.05-1.066-2.699-1.578zm7.701-5.972c.552 0 1-.447 1-1v-3.279l1.539-.513 2.738 4.792h-2.277c-.351 0-.676.184-.857.484l-1.45 2.41c0 .001 0 .001-.001.002l-.004.007s0 0-.001.001v.001l-.687 1.148-.683-1.138c-.002-.003-.002-.007-.004-.011s-.006-.006-.008-.009l-1.448-2.411c-.181-.3-.506-.484-.857-.484h-2.277l2.738-4.792 1.539.513v3.279c0 .553.448 1 1 1zm4.998 5.742c.889.169 1.794.241 2.698.23-.649.512-1.52 1.07-2.698 1.579zm22.077-2.67c-2.906 2.896-7.374 3.726-11.12 2.063-1.044-.463-2.006-1.105-2.857-1.911-.298-.282-.738-.354-1.107-.182-.001 0-.002.001-.003.001l-.001-.001c-.313.146-.637.273-.972.387v.001c-.336.114-.684.213-1.042.296-1.785.416-3.872.355-5.677-.191-.459-.143-.903-.325-1.337-.526l.607-1.009h3.435c.356 0 .686-.189.865-.498s.18-.688.003-.998l-4-7c-.237-.414-.733-.604-1.185-.452l-2.684.895-2.684-.895c-.453-.152-.949.038-1.185.452l-4 7c-.177.31-.176.689.003.998.18.309.51.498.866.498h3.435l.606 1.01c-.433.201-.875.382-1.33.524-1.818.551-3.898.61-5.684.192-.716-.165-1.394-.396-2.016-.683-.371-.172-.81-.1-1.107.182-.851.806-1.813 1.448-2.858 1.911-3.744 1.662-8.212.833-11.116-2.062-3.892-3.9-3.892-10.248-.001-14.147.745-.744 1.624-1.375 2.613-1.874.384-.193.601-.61.54-1.036-.322-2.221.395-4.396 1.967-5.97.029-.029.041-.068.066-.099l6.282 3.392c.15.081.313.12.475.12.272 0 .54-.11.734-.32l1.923-2.075 2.781-.5c.469-.085.813-.488.823-.964l.149-7.336c2.551-1.478 5.55-2.265 8.718-2.265 3.166 0 6.168.791 8.731 2.274l.139 7.324c.009.478.354.881.823.966l2.781.5 1.923 2.075c.194.21.462.32.734.32.162 0 .325-.039.475-.12l6.257-3.379c1.889 1.734 2.326 4.212 2.058 6.056-.062.426.155.843.54 1.036.988.499 1.868 1.13 2.612 1.873 3.891 3.901 3.891 10.249.002 14.147z" fill="#252525" data-original="#252525" class=""></path><path d="m39.002 12h-3.434l-2.708-4.515c-.361-.602-1.354-.602-1.715 0l-2.709 4.515h-3.434c-.356 0-.686.189-.865.498s-.18.688-.003.998l4 7c.236.414.732.604 1.185.452l2.684-.895 2.684.895c.104.035.21.052.315.052.351 0 .687-.186.868-.504l4-7c.177-.31.176-.689-.003-.998s-.508-.498-.865-.498zm-4.461 6.792-1.539-.513v-3.279c0-.553-.448-1-1-1s-1 .447-1 1v3.279l-1.539.513-2.737-4.792h2.277c.351 0 .677-.185.857-.485l2.143-3.571 2.143 3.571c.18.3.505.485.856.485h2.277z" fill="#252525" data-original="#252525" class=""></path><path d="m56.972 21.66-5.265-.153-1.683-2.996c-.175-.312-.501-.506-.857-.511-.372.002-.688.179-.872.485l-4.15 6.91c-.245.408-.168.934.184 1.254l2.093 1.905.528 2.782c.089.469.498.81.975.813l8.06.06h.007c.353 0 .681-.187.861-.491.181-.306.186-.686.012-.996l-1.674-2.997 2.619-4.568c.175-.305.177-.679.005-.985s-.492-.501-.843-.512zm-3.797 5.563c-.174.305-.177.679-.005.984l1.112 1.99-5.52-.041-.303-1.596 3.114-1.745c.482-.27.654-.879.384-1.361-.27-.481-.879-.653-1.361-.383l-3.113 1.745-1.2-1.092 2.842-4.732 1.117 1.989c.172.307.492.5.843.511l4.162.121z" fill="#252525" data-original="#252525" class=""></path><path d="m15.71 18.485c-.184-.307-.542-.482-.872-.485-.356.005-.683.199-.857.511l-1.683 2.996-5.265.153c-.351.011-.671.205-.843.512s-.17.681.005.985l2.619 4.568-1.674 2.998c-.174.311-.169.69.013.997.18.304.507.49.86.49h.007l8.06-.06c.478-.004.886-.345.975-.813l.528-2.782 2.093-1.905c.352-.32.429-.846.184-1.254zm.813 8.33-3.113-1.745c-.479-.271-1.09-.099-1.361.383-.27.482-.098 1.092.384 1.361l3.114 1.745-.303 1.596-5.52.041 1.112-1.99c.171-.306.169-.68-.005-.984l-2.07-3.611 4.162-.121c.351-.011.671-.204.843-.511l1.117-1.989 2.842 4.732z" fill="#252525" data-original="#252525" class=""></path></g></g></g></svg>