<?xml version="1.0" encoding="UTF-8"?>
<!DOCTYPE svg PUBLIC "-//W3C//DTD SVG 1.1//EN" "http://www.w3.org/Graphics/SVG/1.1/DTD/svg11.dtd">
<!-- Creator: CorelDRAW X7 -->
<svg xmlns="http://www.w3.org/2000/svg" xml:space="preserve" width="800px" height="581px" version="1.1" style="shape-rendering:geometricPrecision; text-rendering:geometricPrecision; image-rendering:optimizeQuality; fill-rule:evenodd; clip-rule:evenodd"
viewBox="0 0 758 550"
 xmlns:xlink="http://www.w3.org/1999/xlink">
 <defs>
  <style type="text/css">
   <![CDATA[
    .fil9 {fill:#0F2639}
    .fil7 {fill:#1C2042}
    .fil3 {fill:#333333}
    .fil11 {fill:#570029}
    .fil1 {fill:#B2B548}
    .fil0 {fill:#CED663}
    .fil8 {fill:#E95B2D}
    .fil10 {fill:#FFA22B}
    .fil6 {fill:#FFA81E}
    .fil4 {fill:#FFD92D}
    .fil5 {fill:#FFE571}
    .fil2 {fill:white}
   ]]>
  </style>
 </defs>
 <g id="Слой_x0020_1">
  <metadata id="CorelCorpID_0Corel-Layer"/>
  <g id="_981726096">
   <g id="_918614960">
    <path class="fil0" d="M137 272c-13,-29 -17,-50 -18,-65 -1,-20 -12,-37 -28,-46 -8,-6 -24,-16 -17,-24 50,-55 91,-31 91,-31 0,0 -38,-30 -6,-97 5,-10 20,2 29,7 15,11 35,15 53,8 15,-5 36,-9 67,-9 0,0 14,46 -5,80 -5,9 -4,19 3,26 20,25 41,55 35,102 -41,23 -78,16 -108,6 -9,-3 -20,0 -26,8 -22,31 -70,35 -70,35l0 0z"/>
    <path class="fil1" d="M341 223l-176 -117c0,0 -38,-30 -6,-97 5,-10 20,2 29,7 15,11 35,15 53,8 15,-5 36,-9 67,-9 0,0 14,46 -5,80 -5,9 -4,19 3,26 20,25 41,55 35,102l0 0z"/>
    <g>
     <path class="fil2" d="M252 215c2,-2 4,-3 6,-3 15,4 27,5 40,3 3,-1 6,1 6,4 1,3 -2,5 -4,6 -14,2 -29,1 -44,-3 -3,0 -5,-3 -4,-6 0,0 0,-1 0,-1z"/>
     <path class="fil2" d="M143 249c1,-1 1,-2 3,-2 27,-6 39,-18 44,-24 1,-1 5,-2 7,-1 2,2 3,5 1,8 -7,9 -21,21 -50,27 -3,1 -5,-1 -5,-4 -1,-1 0,-3 0,-4l0 0z"/>
    </g>
    <path class="fil3" d="M137 278c1,0 12,-1 28,-6 21,-7 37,-18 47,-32 4,-6 12,-8 20,-6 31,10 70,18 111,-7 2,-1 3,-2 3,-4 6,-47 -15,-79 -36,-105 -5,-6 -6,-14 -2,-20 9,-15 11,-34 10,-55 -1,-17 -5,-29 -5,-29 0,-2 -2,-4 -5,-4 -28,0 -50,3 -69,9 -16,6 -35,3 -48,-7l0 0c-10,-7 -21,-14 -29,-12 -4,1 -6,4 -8,7 -10,20 -18,49 -9,77 0,1 0,2 0,2l-49 -33c-2,-2 -6,-1 -7,1 -2,3 -1,6 1,8l50 33c0,0 -1,0 -2,0 -29,2 -53,21 -68,38 0,1 -1,1 -1,2 -2,2 -2,5 -2,8 1,8 11,15 21,21l0 0c15,10 25,26 26,43 1,19 7,42 18,67 0,2 3,4 5,4l0 0zm-13 -72c-1,-20 -12,-39 -30,-50l-1 0c-3,-3 -15,-10 -15,-15 0,0 0,0 0,-1 19,-21 40,-33 60,-34 14,-1 23,3 24,4l3 1c1,9 8,48 -16,115 -1,3 1,6 4,7 3,1 6,-1 7,-3 19,-56 19,-92 17,-110l55 37 8 48c1,3 3,5 6,5 3,-1 5,-3 5,-6l-6 -39 73 50c3,2 6,1 8,-1 1,-3 1,-6 -2,-8l-73 -49 37 -10c3,0 5,-3 4,-6 0,-3 -3,-5 -6,-4l-48 11 -55 -37c18,-5 51,-19 95,-58 2,-2 2,-5 0,-7 -1,-2 -5,-2 -7,0 -54,47 -92,56 -100,57l-3 -1c-2,-2 -33,-30 -4,-90 0,-1 0,-1 1,-1 4,-1 15,7 19,10l1 0c17,12 38,15 58,9 16,-6 36,-9 61,-9 3,11 10,45 -5,71 -7,11 -5,23 3,33 19,25 38,52 34,95 -37,20 -71,14 -101,4 -12,-3 -25,0 -32,10 -17,24 -52,31 -63,32 -9,-23 -15,-43 -16,-60l0 0z"/>
    <g>
    </g>
    <g>
    </g>
    <g>
    </g>
    <g>
    </g>
    <g>
    </g>
    <g>
    </g>
    <g>
    </g>
    <g>
    </g>
    <g>
    </g>
    <g>
    </g>
    <g>
    </g>
    <g>
    </g>
    <g>
    </g>
    <g>
    </g>
    <g>
    </g>
   </g>
   <g id="_917460896">
    <path class="fil4" d="M751 328c-7,0 -16,1 -27,4 -11,4 -20,8 -27,12 2,-25 2,-32 2,-32 -1,-15 -4,-25 -7,-32 -11,-34 -38,-58 -47,-65 -9,7 -19,17 -28,32 -12,19 -17,36 -19,48 -1,0 -21,-20 -43,-34 -13,-10 -26,-15 -38,-19 -18,-6 -51,-15 -95,-14 2,43 14,72 23,89 5,11 11,22 22,35 17,19 40,36 41,36 -13,4 -31,9 -50,22 -14,10 -25,21 -31,30 8,7 36,31 73,39 7,1 19,4 34,3 0,0 8,-1 33,-5 -3,7 -7,16 -10,28 -2,9 -3,18 -3,25 11,0 45,-3 69,-26 14,-14 20,-29 23,-35 5,-13 6,-23 7,-41 17,-2 29,-4 42,-10 7,-3 22,-10 34,-23 23,-27 23,-58 22,-67z"/>
    <path class="fil5" d="M585 508c0,-7 0,-17 2,-27 3,-12 8,-22 11,-29 -28,4 -36,4 -36,4 -15,1 -27,-2 -35,-3 -36,-7 -63,-28 -75,-38 -11,8 -20,17 -25,25 8,7 36,31 73,39 7,1 19,4 34,3 0,0 8,-1 33,-5 -3,7 -7,16 -10,28 -2,9 -3,18 -3,25 11,0 45,-3 69,-26 2,-2 4,-4 5,-5 -19,8 -36,9 -43,9l0 0z"/>
    <path class="fil6" d="M724 332c-11,4 -20,8 -27,12 2,-25 2,-32 2,-32 -1,-15 -4,-25 -7,-32 -11,-34 -38,-58 -47,-65 -9,7 -19,17 -28,32 -12,19 -17,36 -19,48 -1,0 -21,-20 -43,-34 -13,-10 -26,-15 -38,-19 -18,-6 -51,-15 -95,-14 2,43 14,72 23,89 1,3 2,6 4,9 -1,-7 -2,-14 -2,-21 0,0 0,0 0,0 37,-1 63,6 79,12 9,3 20,7 31,15 6,4 11,7 16,11 9,7 22,4 26,-5 2,-5 5,-11 8,-17 4,-6 8,-11 11,-15 7,-8 18,-8 25,-1 10,10 20,25 26,43 2,5 5,14 6,26 0,0 0,1 0,2 -1,11 10,18 21,15 0,0 0,0 1,0 8,-3 16,-4 22,-4 0,3 0,9 -1,18 3,-3 7,-7 11,-10 23,-27 23,-58 22,-67 -7,0 -16,1 -27,4z"/>
    <g>
     <path class="fil2" d="M476 442c-1,0 -2,0 -4,-1 0,0 -2,-1 -3,-3 1,1 2,2 3,3l-1 0c-3,-2 -3,-6 -1,-9 2,-3 6,-4 9,-2 0,1 0,1 1,1l0 0c3,2 4,6 2,9 -2,1 -4,2 -6,2z"/>
     <path class="fil2" d="M537 461c0,0 0,0 0,0 -19,-1 -33,-5 -49,-11 -3,-1 -5,-5 -3,-8 1,-3 5,-5 8,-3 16,6 27,10 44,11 4,0 7,2 7,5 -1,4 -3,6 -7,6l0 0z"/>
    </g>
    <g>
     <path class="fil7" d="M504 245c3,1 7,2 10,3 1,0 2,1 3,1 3,-1 5,-2 6,-5 1,-3 0,-6 -4,-8 -4,-1 -7,-2 -11,-3 -4,-1 -7,0 -8,4 -2,3 0,7 4,8z"/>
     <path class="fil7" d="M669 432c10,-1 19,-4 28,-8 7,-3 23,-10 37,-26 23,-25 24,-56 24,-71 -1,-1 -1,-3 -3,-4 -1,-1 -3,-2 -5,-2 -9,1 -19,3 -28,5 -6,2 -12,5 -18,7 1,-16 1,-21 1,-21 -1,-16 -4,-27 -7,-33 -11,-34 -35,-57 -49,-69 -3,-2 -7,-2 -9,0 -12,10 -22,21 -29,34 -7,12 -13,26 -17,39 -9,-7 -22,-19 -35,-28 -3,-2 -7,-1 -9,2 -2,3 -2,7 1,9 19,12 36,28 41,33 0,0 1,1 1,1 1,1 4,2 6,1 3,-1 4,-2 5,-5 2,-16 9,-31 18,-46 6,-10 14,-19 22,-28 14,12 32,33 42,59 2,7 5,17 6,31 0,0 0,7 -2,31 0,2 1,5 3,6 2,1 5,1 7,0 8,-5 17,-9 26,-12 6,0 12,-2 18,-2 0,14 -3,36 -21,56 -11,12 -26,19 -31,22 -11,4 -20,6 -33,8 0,-1 0,-2 0,-2 1,-11 0,-29 -1,-43 0,-9 -1,-16 -1,-20 0,-3 0,-5 0,-6 0,-1 0,-2 0,-2 0,0 0,0 0,0 0,0 0,0 0,0 -1,-2 -1,-4 -4,-6 -2,-1 -4,-1 -6,1 -4,1 -4,4 -4,6 0,1 1,2 1,4 0,0 0,0 0,1 0,12 2,41 2,58l-21 -17c-3,-2 -7,-2 -10,0 -2,2 -2,6 1,8l23 20c-17,2 -52,3 -66,4 -1,0 -1,0 -1,0 -2,0 -3,0 -4,0 -2,0 -5,0 -7,3 -1,2 -1,5 1,7 1,2 3,2 6,2 0,0 0,0 0,0 0,0 1,0 2,0 1,0 4,0 6,0 4,0 12,0 22,-1 1,0 3,0 5,0 13,0 30,-1 40,-2 1,0 2,-1 3,-1 -1,14 -3,21 -7,32 -2,5 -7,20 -21,32 -18,17 -41,23 -57,24 0,-6 1,-12 2,-17 2,-9 6,-18 10,-26 1,-2 1,-5 -1,-6 -1,-2 -4,-3 -6,-3 -25,4 -33,5 -33,5 -14,0 -25,-2 -32,-4 -29,-6 -53,-21 -66,-33 8,-9 17,-17 27,-24 14,-9 30,-17 47,-21 2,0 4,-2 5,-4 0,-3 -1,-5 -2,-6 0,0 -1,-1 -1,-1 -6,-4 -25,-19 -39,-35 -11,-12 -17,-23 -22,-33 -12,-25 -19,-52 -21,-81 13,-1 26,0 40,2 3,1 7,-1 7,-5 1,-3 -2,-7 -5,-7 -17,-2 -34,-2 -50,-2 -1,0 -3,0 -4,1 -2,1 -2,3 -2,5 2,34 10,64 23,92 5,10 12,22 24,36 10,12 23,23 31,30 -13,5 -26,11 -39,19 -13,9 -23,19 -33,31 -2,2 -2,6 1,8 12,11 41,33 76,41 7,1 20,4 36,3 0,0 6,0 22,-3 -2,6 -4,12 -6,19 -2,8 -2,17 -2,26 0,2 0,3 1,4 2,2 3,2 5,2 1,0 1,0 2,0 17,-1 48,-5 72,-28 15,-14 21,-31 24,-37 4,-11 6,-20 7,-32l82 71c2,0 3,1 5,1 2,0 4,-1 5,-1 2,-3 2,-7 -1,-9l-81 -69 0 0z"/>
     <path class="fil7" d="M577 368c2,0 3,-1 5,-2 2,-2 2,-6 -1,-9l-19 -16c-3,-2 -7,-2 -9,1 -3,2 -3,6 0,9l19 16c2,1 3,1 5,1z"/>
    </g>
    <g>
    </g>
    <g>
    </g>
    <g>
    </g>
    <g>
    </g>
    <g>
    </g>
    <g>
    </g>
    <g>
    </g>
    <g>
    </g>
    <g>
    </g>
    <g>
    </g>
    <g>
    </g>
    <g>
    </g>
    <g>
    </g>
    <g>
    </g>
    <g>
    </g>
   </g>
   <g id="_686703232">
    <g>
     <path class="fil8" d="M610 180c-4,-11 4,-21 17,-24 14,-3 27,3 31,13l2 5c34,-14 55,-32 55,-32 0,0 -13,-98 -124,-129 -70,-20 -125,8 -145,55 -19,47 4,96 73,115 34,10 66,10 93,5l-2 -8z"/>
     <path class="fil9" d="M614 192l5 -1 -4 -12c-1,-3 -1,-7 0,-10 2,-5 7,-8 14,-9 5,-1 10,-1 15,1 4,3 8,5 9,9l3 10 6 -3c35,-13 56,-31 57,-32l1 -1 0 -2c0,-1 -3,-26 -21,-55 -10,-17 -24,-32 -38,-44 -20,-15 -43,-27 -69,-34 -34,-10 -67,-9 -95,3 -24,10 -43,29 -54,51l-46 -13 -3 8 46 13c-8,24 -7,47 5,67 13,23 39,40 73,49 31,9 64,11 96,5l0 0zm-9 -25c-1,4 -1,9 0,14l1 3c-8,2 -16,2 -25,3l-56 -92 72 19 23 40c-7,3 -12,8 -15,13zm44 -13c-6,-2 -12,-3 -19,-3l-20 -34 95 27c-7,6 -23,16 -42,24 -2,-6 -7,-11 -14,-14l0 0zm41 -63c11,18 17,36 19,45l-54 -15 26 -11 -5 -6 -35 13 -84 -22 102 -42c12,11 22,24 31,38zm-188 -72c25,-10 55,-11 87,-2 23,6 45,17 63,31l-108 43 -55 -15 45 -19 -5 -7 -54 22 -22 -6c10,-21 27,-37 49,-47zm-48 116c-11,-19 -13,-40 -5,-62l62 18 59 96c-17,-1 -33,-3 -49,-8 -31,-8 -55,-23 -67,-44l0 0z"/>
     <path class="fil9" d="M528 164c-27,-7 -46,-20 -55,-37l-10 4c11,19 32,33 61,40l4 -7 0 0z"/>
     <rect class="fil9" transform="matrix(2.20966 -0.885327 1.09086 1.79333 545.093 43.8059)" width="12.2359" height="4.12149"/>
    </g>
   </g>
   <g id="_686701120">
    <path class="fil10" d="M225 513l2 -6c1,-7 9,-12 16,-10l0 0c8,2 16,-4 16,-13l1 -24c0,-9 9,-15 18,-13l0 0c9,3 18,-5 17,-14l-1 -21c0,-10 1,-18 5,-26l7 -15c8,-15 -3,-33 -20,-34l-16 0c-9,0 -17,-3 -25,-8l-18 -12c-8,-5 -18,-1 -21,8l0 0c-2,9 -11,13 -19,10l-22 -11c-8,-4 -18,0 -20,8l0 0c-1,6 -8,11 -15,9l-7 -2c-15,-3 -31,5 -35,20l-7 32c-1,4 -6,6 -10,5l0 0c-9,-2 -19,3 -21,12l-21 80c-3,15 5,30 21,34l79 21c10,2 18,-3 20,-12l0 0c2,-5 6,-7 10,-6l32 8c14,4 30,-5 34,-20l0 0z"/>
    <g>
     <path class="fil11" d="M189 540c10,3 18,1 26,-4 9,-4 14,-12 17,-21l2 -7c0,-3 4,-5 7,-4 6,2 12,1 18,-3 4,-4 7,-10 7,-16l1 -25c0,-2 1,-4 3,-5 2,-2 4,-2 6,-2 7,2 14,1 19,-3 5,-4 8,-11 8,-18l-2 -21c0,-8 1,-16 5,-22l7 -15c4,-9 4,-20 -1,-29 -6,-8 -15,-13 -25,-14l-16 -1c-8,-1 -15,-3 -22,-8l-18 -11c-6,-4 -13,-4 -19,-2 -6,3 -10,8 -12,14 0,3 -2,4 -4,5 -2,1 -4,1 -6,0l-22 -11c-6,-3 -13,-3 -18,0 -6,2 -9,7 -11,14 -1,3 -4,5 -7,4l-8 -2c-9,-3 -18,-1 -26,4 -9,3 -13,11 -16,20l-8 32c0,0 0,1 -1,1 0,0 0,0 0,0 -13,-4 -27,4 -30,16l-20 80c-2,7 -2,14 1,21l-20 11c-4,2 -5,6 -3,10 2,3 7,4 10,2l19 -12c5,6 11,9 18,11l80 21c13,3 25,-4 28,-17 1,-1 1,-1 1,-1 0,0 0,0 1,0l31 8 0 0zm-46 -11c-1,5 -6,8 -12,7l-79 -21c-4,-1 -6,-2 -9,-4l101 -59 43 11c4,1 8,-1 9,-5 1,-4 -2,-7 -5,-8l-30 -8 88 -51c4,-2 5,-7 3,-10 -2,-4 -6,-5 -10,-3l-26 15 7 -25c1,-4 -2,-8 -5,-9 -4,-1 -8,2 -9,6l-10 38 -90 52 5 -19c1,-4 -1,-8 -5,-9 -4,-1 -8,2 -9,5l-9 34 -55 33c-1,-3 -1,-6 0,-9l21 -80c1,-5 7,-8 12,-7 4,1 8,0 12,-2 3,-2 5,-5 6,-8l8 -32c2,-6 5,-10 10,-13 5,-3 10,-3 16,-2l7 2c5,1 11,0 16,-2 3,-3 7,-8 8,-12 1,-2 3,-4 4,-4 1,-1 3,-1 5,0l22 10c6,3 13,3 19,1 5,-3 10,-7 11,-14 1,-2 2,-4 4,-4 2,-1 5,-1 6,0l18 12c9,4 18,8 29,8l16 1c5,1 10,4 13,9 3,4 3,10 1,15l-7 15c-5,9 -7,19 -6,29l1 21c0,2 -1,5 -2,6 -2,1 -4,2 -6,1 -7,-1 -13,0 -19,4 -4,4 -7,9 -7,15l-1 25c-1,3 -2,4 -3,5 -2,1 -4,2 -6,1 -5,-1 -10,-1 -15,2 -5,3 -8,7 -9,13l-2 6c-2,6 -5,10 -10,13 -5,3 -9,3 -15,2l-32 -8c-4,-1 -8,-1 -12,1 -3,3 -5,6 -6,10l0 0z"/>
     <path class="fil11" d="M121 409c1,-4 -1,-8 -5,-9 -4,-1 -8,2 -9,6l-1 4c0,1 0,3 1,5 1,2 2,3 4,3 4,1 8,-1 9,-5l1 -4z"/>
    </g>
    <g>
    </g>
    <g>
    </g>
    <g>
    </g>
    <g>
    </g>
    <g>
    </g>
    <g>
    </g>
    <g>
    </g>
    <g>
    </g>
    <g>
    </g>
    <g>
    </g>
    <g>
    </g>
    <g>
    </g>
    <g>
    </g>
    <g>
    </g>
    <g>
    </g>
   </g>
  </g>
 </g>
</svg>
