<?xml version="1.0" encoding="UTF-8"?>
<!DOCTYPE svg PUBLIC "-//W3C//DTD SVG 1.1//EN" "http://www.w3.org/Graphics/SVG/1.1/DTD/svg11.dtd">
<!-- Creator: CorelDRAW X7 -->
<svg xmlns="http://www.w3.org/2000/svg" xml:space="preserve" width="581px" height="800px" version="1.1" style="shape-rendering:geometricPrecision; text-rendering:geometricPrecision; image-rendering:optimizeQuality; fill-rule:evenodd; clip-rule:evenodd"
viewBox="0 0 540 743"
 xmlns:xlink="http://www.w3.org/1999/xlink">
 <defs>
  <style type="text/css">
   <![CDATA[
    .fil9 {fill:#0F2639}
    .fil7 {fill:#1C2042}
    .fil3 {fill:#333333}
    .fil11 {fill:#570029}
    .fil1 {fill:#B2B548}
    .fil0 {fill:#CED663}
    .fil8 {fill:#E95B2D}
    .fil10 {fill:#FFA22B}
    .fil6 {fill:#FFA81E}
    .fil4 {fill:#FFD92D}
    .fil5 {fill:#FFE571}
    .fil2 {fill:white}
   ]]>
  </style>
 </defs>
 <g id="Слой_x0020_1">
  <metadata id="CorelCorpID_0Corel-Layer"/>
  <g id="_989984096">
   <g id="_918614960">
    <path class="fil0" d="M266 609c-28,13 -48,16 -63,17 -20,1 -36,12 -46,27 -5,9 -15,24 -23,18 -54,-49 -31,-90 -31,-90 0,0 -28,38 -94,6 -10,-5 2,-19 7,-28 10,-16 14,-35 7,-52 -4,-15 -8,-36 -8,-66 0,0 45,-14 78,5 9,5 19,4 26,-3 24,-20 54,-40 100,-34 22,40 16,76 6,106 -3,8 0,19 8,25 29,22 33,69 33,69l0 0z"/>
    <path class="fil1" d="M219 409l-116 172c0,0 -28,38 -94,6 -10,-5 2,-19 7,-28 10,-16 14,-35 7,-52 -4,-15 -8,-36 -8,-66 0,0 45,-14 78,5 9,5 19,4 26,-3 24,-20 54,-40 100,-34l0 0z"/>
    <g>
     <path class="fil2" d="M210 496c-2,-2 -2,-4 -2,-6 3,-15 4,-26 2,-39 -1,-3 1,-6 4,-6 3,-1 6,2 7,4 2,14 1,28 -3,43 -1,3 -4,5 -7,4 0,0 -1,0 -1,0z"/>
     <path class="fil2" d="M244 603c-1,-1 -2,-2 -2,-4 -6,-26 -17,-37 -23,-42 -2,-1 -3,-5 -1,-7 2,-2 5,-3 8,-1 9,7 20,21 26,48 1,3 -1,6 -4,6 -1,1 -3,0 -4,0l0 0z"/>
    </g>
    <path class="fil3" d="M272 609c0,-1 -1,-13 -6,-28 -6,-20 -17,-36 -31,-46 -5,-4 -7,-12 -5,-19 9,-31 17,-69 -7,-109 -1,-2 -2,-3 -4,-3 -46,-6 -78,14 -103,35 -6,5 -14,6 -20,2 -15,-8 -33,-11 -54,-10 -17,2 -28,6 -28,6 -2,0 -4,1 -4,4 0,27 3,49 9,68 5,15 3,34 -7,47l0 0c-7,10 -14,20 -12,28 1,4 4,6 7,8 19,9 48,18 75,8 1,0 2,0 2,0l-32 49c-2,1 -1,5 1,6 3,2 6,1 8,-1l32 -48c0,0 0,1 0,2 2,28 21,52 37,67 1,0 1,1 2,1 2,1 5,1 8,1 8,-1 15,-10 21,-21l0 0c10,-14 25,-24 42,-25 19,-1 41,-7 65,-17 2,0 4,-3 4,-5l0 0zm-70 13c-20,1 -38,11 -49,28l0 1c-3,3 -10,16 -15,16 0,0 0,0 -1,0 -20,-19 -32,-40 -34,-59 -1,-14 4,-23 5,-24l1 -3c9,-1 46,-8 113,15 3,1 6,0 7,-3 1,-3 -1,-6 -3,-7 -55,-18 -91,-18 -108,-16l36 -54 47 -8c3,-1 5,-3 5,-6 -1,-3 -3,-5 -6,-5l-38 6 48 -72c2,-3 1,-6 -1,-8 -2,-1 -5,-1 -7,2l-48 72 -10 -36c0,-3 -3,-5 -6,-4 -3,0 -5,3 -4,6l11 47 -36 54c-6,-18 -19,-50 -57,-94 -2,-2 -5,-2 -7,0 -2,1 -2,5 0,7 46,53 55,91 56,98l-1 3c-2,2 -29,33 -88,4 -1,0 -1,0 -1,-1 -1,-4 7,-14 10,-18l0 -1c11,-17 14,-38 8,-57 -6,-15 -8,-36 -8,-60 10,-3 44,-9 69,5 11,7 23,5 33,-3 24,-19 51,-37 92,-34 20,37 15,70 5,100 -4,11 0,24 10,30 23,18 30,52 31,63 -23,9 -42,15 -59,16l0 0z"/>
    <g>
    </g>
    <g>
    </g>
    <g>
    </g>
    <g>
    </g>
    <g>
    </g>
    <g>
    </g>
    <g>
    </g>
    <g>
    </g>
    <g>
    </g>
    <g>
    </g>
    <g>
    </g>
    <g>
    </g>
    <g>
    </g>
    <g>
    </g>
    <g>
    </g>
   </g>
   <g id="_917460896">
    <path class="fil4" d="M321 7c0,6 1,15 4,26 4,11 9,20 13,27 -25,-2 -32,-2 -32,-2 -15,1 -24,4 -31,7 -34,10 -58,37 -65,46 7,8 18,18 32,27 19,11 36,17 47,19 0,1 -20,20 -33,42 -10,13 -15,26 -19,37 -5,17 -14,50 -13,94 41,-2 70,-15 87,-24 10,-4 22,-10 34,-21 19,-16 35,-39 35,-40 4,12 10,31 22,49 10,13 20,24 29,31 7,-9 31,-36 39,-73 1,-6 3,-18 3,-32 0,0 -1,-8 -5,-33 6,3 15,7 27,10 9,2 18,2 25,2 0,-10 -3,-43 -26,-67 -14,-13 -28,-19 -34,-22 -13,-5 -23,-6 -40,-7 -2,-17 -4,-29 -10,-41 -3,-7 -10,-22 -23,-34 -26,-22 -57,-22 -66,-21z"/>
    <path class="fil5" d="M498 170c-7,0 -17,0 -26,-2 -12,-3 -22,-8 -29,-11 4,27 4,35 4,35 1,15 -1,27 -2,34 -8,35 -28,62 -38,74 8,10 16,19 24,25 7,-9 31,-36 39,-73 1,-6 3,-18 3,-32 0,0 -1,-8 -5,-33 6,3 15,7 27,10 9,2 18,2 25,2 0,-10 -3,-43 -26,-67 -2,-2 -4,-4 -5,-5 8,19 9,36 9,43l0 0z"/>
    <path class="fil6" d="M325 33c4,11 9,20 13,27 -25,-2 -32,-2 -32,-2 -15,1 -24,4 -31,7 -34,10 -58,37 -65,46 7,8 18,18 32,27 19,11 36,17 47,19 0,1 -20,20 -33,42 -10,13 -15,26 -19,37 -5,17 -14,50 -13,94 41,-2 70,-15 87,-24 3,-1 5,-1 8,-3 -6,1 -13,2 -20,2 0,0 0,0 0,0 -1,-36 6,-62 12,-78 3,-8 6,-19 14,-30 4,-6 8,-11 12,-16 6,-9 4,-21 -5,-25 -6,-2 -12,-5 -18,-9 -5,-3 -10,-7 -14,-10 -8,-7 -8,-18 -1,-24 10,-10 24,-20 42,-26 5,-2 14,-5 26,-6 0,0 0,0 1,0 11,1 18,-10 15,-20 0,0 0,0 0,-1 -3,-8 -4,-16 -4,-21 3,0 10,0 18,1 -3,-4 -6,-8 -10,-12 -26,-22 -57,-22 -66,-21 0,6 1,15 4,26z"/>
    <g>
     <path class="fil2" d="M433 277c0,1 0,1 -1,3 0,0 -1,2 -3,3 1,-1 2,-2 3,-3l0 1c-2,3 -6,3 -9,1 -3,-2 -3,-5 -2,-8 1,0 1,0 1,-1l0 0c2,-3 6,-4 9,-2 1,2 2,4 2,6z"/>
     <path class="fil2" d="M452 217c0,0 0,0 0,0 -1,18 -5,32 -11,48 -1,3 -5,5 -8,3 -3,-1 -5,-5 -3,-9 6,-15 10,-26 11,-42 0,-4 3,-7 6,-7 3,1 5,3 5,7l0 0z"/>
    </g>
    <g>
     <path class="fil7" d="M240 249c1,-3 2,-7 3,-10 0,-1 1,-2 1,-3 -1,-3 -2,-5 -5,-6 -3,-1 -5,0 -7,4 -1,4 -2,7 -3,11 -1,4 0,7 4,7 2,2 6,0 7,-3z"/>
     <path class="fil7" d="M423 87c-1,-10 -3,-19 -7,-27 -3,-7 -10,-22 -25,-37 -25,-22 -55,-23 -71,-23 -1,1 -3,1 -4,3 -1,1 -2,3 -2,5 1,8 3,18 5,27 2,6 5,12 7,18 -15,-1 -20,-1 -20,-1 -16,1 -26,4 -33,7 -33,10 -56,34 -67,48 -2,3 -2,7 0,9 9,11 21,21 33,28 12,7 25,13 39,17 -8,9 -19,21 -28,34 -2,3 -1,6 2,8 3,3 7,2 9,-1 11,-18 27,-34 32,-39 0,0 1,-1 1,-1 1,-1 2,-4 1,-6 -1,-3 -2,-4 -5,-5 -15,-3 -30,-9 -45,-18 -10,-6 -18,-14 -27,-21 12,-14 32,-32 58,-42 7,-2 16,-4 30,-5 0,0 7,0 31,1 2,0 4,0 5,-2 1,-2 1,-5 0,-7 -4,-8 -8,-17 -11,-26 -1,-6 -3,-12 -3,-18 14,0 36,3 55,21 12,11 19,26 22,31 4,10 6,19 8,32 -1,0 -2,0 -2,0 -11,-1 -29,0 -43,1 -8,0 -15,1 -19,1 -3,0 -5,0 -6,0 -1,0 -2,0 -2,0 0,0 0,0 0,0 0,0 0,0 0,0 -1,1 -3,1 -5,4 -1,2 -1,4 1,6 1,4 4,4 5,4 1,0 2,-1 4,-1 0,0 0,0 1,0 12,0 41,-2 57,-2l-17 20c-2,3 -2,7 0,10 3,2 7,2 8,-1l20 -22c2,16 3,51 4,64 0,1 0,1 0,1 0,2 0,3 0,4 0,2 0,5 2,7 2,1 5,1 7,-1 2,-1 2,-3 2,-6 0,0 0,0 0,0 0,0 0,-1 0,-2 0,-1 0,-4 0,-6 0,-4 0,-11 -1,-21 0,-1 0,-3 0,-5 0,-13 -1,-30 -2,-39 0,-1 -1,-2 -1,-3 14,1 21,3 32,7 5,2 19,6 31,20 17,18 23,40 24,56 -6,0 -12,-1 -17,-2 -9,-2 -18,-6 -25,-10 -2,-1 -5,-1 -6,1 -2,1 -3,4 -3,6 4,25 5,33 5,33 0,13 -2,24 -4,31 -6,28 -21,52 -33,64 -9,-8 -16,-16 -23,-26 -9,-13 -16,-30 -21,-46 0,-2 -2,-4 -4,-5 -3,0 -5,1 -6,2 0,0 -1,1 -1,1 -4,6 -18,25 -34,38 -12,11 -23,17 -32,22 -24,11 -51,19 -79,21 -1,-14 0,-26 2,-40 1,-3 -1,-6 -5,-6 -3,-1 -7,1 -7,4 -2,17 -3,33 -3,50 0,0 1,2 2,3 1,2 3,2 5,2 33,-2 63,-9 90,-23 9,-5 22,-11 35,-23 12,-10 22,-22 29,-31 5,14 12,26 19,39 9,12 19,23 30,33 2,1 6,1 8,-1 12,-13 33,-41 40,-76 1,-6 4,-19 3,-34 0,0 0,-6 -3,-22 6,1 12,3 19,5 8,2 17,3 26,3 2,0 3,-1 4,-2 2,-2 2,-3 2,-5 0,0 0,0 0,-1 -1,-17 -5,-47 -28,-71 -14,-14 -30,-20 -36,-23 -11,-4 -20,-6 -32,-7l70 -81c0,-2 1,-3 1,-4 0,-2 -1,-4 -1,-5 -3,-2 -7,-2 -9,1l-68 79 0 0z"/>
     <path class="fil7" d="M361 177c0,-2 -1,-3 -2,-5 -2,-1 -6,-1 -9,1l-15 19c-2,3 -2,7 1,8 2,3 5,3 8,0l16 -18c1,-2 1,-3 1,-5z"/>
    </g>
    <g>
    </g>
    <g>
    </g>
    <g>
    </g>
    <g>
    </g>
    <g>
    </g>
    <g>
    </g>
    <g>
    </g>
    <g>
    </g>
    <g>
    </g>
    <g>
    </g>
    <g>
    </g>
    <g>
    </g>
    <g>
    </g>
    <g>
    </g>
    <g>
    </g>
   </g>
   <g id="_686703232">
    <g>
     <path class="fil8" d="M177 145c-11,3 -22,-4 -24,-17 -3,-13 2,-26 13,-30l5 -2c-15,-33 -32,-54 -32,-54 0,0 -96,13 -126,122 -19,68 8,122 54,141 46,20 94,-3 113,-71 9,-34 9,-64 4,-91l-7 2z"/>
     <path class="fil9" d="M188 141l-1 -5 -11 4c-3,1 -7,1 -10,0 -5,-2 -9,-7 -10,-14 -1,-5 -1,-9 1,-14 3,-4 6,-8 10,-9l10 -3 -3 -6c-14,-34 -31,-54 -32,-55l-1 -2 -2 1c-1,0 -25,2 -54,20 -16,9 -31,23 -43,37 -15,20 -26,42 -33,68 -10,33 -9,65 3,92 10,24 28,43 50,53l-13 46 8 3 13 -46c23,9 46,7 65,-5 22,-12 40,-37 48,-71 9,-31 11,-63 5,-94l0 0zm-24 8c4,2 9,2 14,0l3 -1c1,9 1,17 2,25l-90 55 19 -70 39 -23c3,7 7,11 13,14zm-13 -42c-2,6 -3,12 -3,18l-33 20 26 -93c6,7 15,22 24,41 -7,2 -11,7 -14,14l0 0zm-62 -41c18,-10 36,-16 44,-18l-14 53 -11 -26 -6 5 13 35 -22 82 -41 -100c11,-12 23,-22 37,-31zm-70 185c-10,-25 -11,-54 -2,-85 5,-23 16,-45 30,-62l42 106 -14 54 -19 -44 -7 5 22 53 -6 21c-21,-10 -37,-26 -46,-48zm113 47c-18,10 -39,12 -60,5l17 -61 94 -58c-1,16 -2,33 -7,48 -8,31 -23,54 -44,66l0 0z"/>
     <path class="fil9" d="M161 225c-7,27 -20,46 -36,54l3 10c19,-11 32,-32 40,-60l-7 -4 0 0z"/>
     <rect class="fil9" transform="matrix(-0.885327 -2.20966 1.79333 -1.09086 42.9459 208.581)" width="11.9957" height="4.04057"/>
    </g>
   </g>
   <g id="_686701120">
    <path class="fil10" d="M503 522l-6 -2c-7,-1 -12,-8 -10,-15l0 0c2,-8 -4,-15 -13,-16l-23 -1c-9,0 -15,-9 -13,-18l0 0c3,-8 -5,-17 -14,-16l-20 1c-10,0 -18,-1 -26,-5l-14 -7c-15,-7 -32,3 -33,20l-1 15c0,9 -3,17 -8,25l-11 17c-5,8 -1,18 7,21l0 0c9,2 14,11 10,19l-11 21c-3,8 0,17 8,19l0 0c7,2 12,9 10,16l-2 7c-4,14 5,29 19,33l31 8c4,1 7,6 6,10l0 0c-3,8 3,18 11,20l78 20c15,4 30,-5 34,-20l20 -77c2,-10 -3,-19 -11,-21l0 0c-5,-1 -7,-5 -6,-9l8 -31c3,-14 -5,-30 -20,-34l0 0z"/>
    <g>
     <path class="fil11" d="M529 558c3,-10 1,-18 -3,-26 -4,-9 -12,-14 -21,-16l-7 -2c-3,0 -5,-4 -4,-7 2,-6 1,-12 -3,-17 -4,-5 -10,-8 -16,-8l-24 -1c-2,0 -4,-1 -4,-3 -2,-2 -2,-4 -2,-6 2,-7 1,-13 -4,-18 -4,-5 -11,-8 -18,-8l-20 2c-8,0 -15,-1 -22,-5l-14 -6c-9,-4 -20,-4 -28,0 -9,6 -14,15 -15,25l-1 15c-1,8 -3,15 -8,22l-10 18c-4,5 -4,12 -2,18 3,6 8,10 13,12 3,0 4,2 5,4 1,2 1,4 0,6l-10 21c-3,6 -3,13 0,18 2,5 6,9 13,11 3,1 5,4 4,7l-2 8c-3,8 -1,17 4,25 4,8 11,13 20,16l31 8c0,0 1,0 1,1 0,0 0,0 0,0 -4,12 4,26 16,29l78 20c7,2 14,2 21,-1l11 19c2,4 6,5 10,3 3,-2 4,-7 2,-10l-12 -19c6,-5 9,-11 11,-17l20 -78c3,-13 -4,-25 -16,-28 -1,-1 -1,-1 -1,-1 0,0 0,0 0,-1l7 -30 0 0zm-10 45c5,1 7,6 7,12l-21 77c-1,4 -2,6 -4,9l-57 -99 10 -42c1,-4 -1,-8 -5,-9 -3,-1 -7,2 -8,5l-8 29 -50 -86c-2,-4 -7,-5 -10,-3 -4,2 -5,6 -3,10l15 25 -24 -7c-4,-1 -8,2 -9,5 -1,4 2,8 6,9l37 10 52 88 -20 -5c-4,-1 -7,1 -8,5 -1,4 1,8 4,9l34 8 32 54c-3,1 -6,1 -9,0l-78 -20c-5,-1 -8,-7 -7,-11 1,-4 0,-8 -1,-12 -2,-3 -5,-6 -9,-7l-31 -8c-6,-1 -10,-4 -13,-9 -2,-5 -2,-10 -1,-16l1 -6c1,-5 0,-11 -1,-16 -3,-4 -8,-7 -13,-8 -2,-1 -4,-3 -4,-4 -1,-1 -1,-3 0,-5l11 -21c3,-6 3,-13 1,-19 -3,-5 -8,-10 -15,-11 -2,-1 -4,-2 -4,-4 -1,-2 -1,-5 0,-6l12 -17c5,-9 9,-18 9,-29l1 -15c1,-5 3,-10 8,-13 4,-3 10,-3 15,-1l14 7c9,5 19,7 29,6l20 -1c2,0 5,1 6,2 1,1 2,3 1,5 -1,7 0,13 4,19 4,4 10,7 15,7l24 1c3,1 4,2 5,3 1,2 2,4 1,6 -1,5 -1,10 2,14 3,5 7,8 13,9l6 2c6,2 10,5 13,10 3,4 3,9 2,15l-8 31c-1,4 -1,8 1,11 3,3 6,6 10,7l0 0z"/>
     <path class="fil11" d="M401 624c-4,-1 -7,1 -8,5 -1,4 1,8 5,9l4 1c1,0 3,0 5,-1 2,-1 3,-2 3,-4 1,-4 -1,-8 -5,-9l-4 -1z"/>
    </g>
    <g>
    </g>
    <g>
    </g>
    <g>
    </g>
    <g>
    </g>
    <g>
    </g>
    <g>
    </g>
    <g>
    </g>
    <g>
    </g>
    <g>
    </g>
    <g>
    </g>
    <g>
    </g>
    <g>
    </g>
    <g>
    </g>
    <g>
    </g>
    <g>
    </g>
   </g>
  </g>
 </g>
</svg>
