<?xml version="1.0" encoding="UTF-8"?>
<!DOCTYPE svg PUBLIC "-//W3C//DTD SVG 1.1//EN" "http://www.w3.org/Graphics/SVG/1.1/DTD/svg11.dtd">
<!-- Creator: CorelDRAW X7 -->
<svg xmlns="http://www.w3.org/2000/svg" xml:space="preserve" width="800px" height="581px" version="1.1" style="shape-rendering:geometricPrecision; text-rendering:geometricPrecision; image-rendering:optimizeQuality; fill-rule:evenodd; clip-rule:evenodd"
viewBox="0 0 771 560"
 xmlns:xlink="http://www.w3.org/1999/xlink">
 <defs>
  <style type="text/css">
   <![CDATA[
    .fil9 {fill:#0F2639}
    .fil7 {fill:#1C2042}
    .fil3 {fill:#333333}
    .fil11 {fill:#570029}
    .fil1 {fill:#B2B548}
    .fil0 {fill:#CED663}
    .fil8 {fill:#E95B2D}
    .fil10 {fill:#FFA22B}
    .fil6 {fill:#FFA81E}
    .fil4 {fill:#FFD92D}
    .fil5 {fill:#FFE571}
    .fil2 {fill:white}
   ]]>
  </style>
 </defs>
 <g id="Слой_x0020_1">
  <metadata id="CorelCorpID_0Corel-Layer"/>
  <g id="_918614960">
   <path class="fil0" d="M139 276c-13,-29 -17,-50 -18,-66 -1,-20 -12,-37 -28,-47 -9,-6 -25,-16 -18,-24 51,-56 93,-32 93,-32 0,0 -39,-30 -6,-98 5,-10 20,2 29,7 16,11 36,15 54,8 15,-5 37,-9 68,-9 0,0 15,47 -5,81 -5,9 -4,20 3,27 21,25 42,56 36,104 -42,23 -79,16 -110,6 -9,-3 -20,0 -26,8 -23,31 -72,35 -72,35z"/>
   <path class="fil1" d="M347 227l-179 -120c0,0 -39,-30 -6,-98 5,-10 20,2 29,7 16,11 36,15 54,8 15,-5 37,-9 68,-9 0,0 15,47 -5,81 -5,9 -4,20 3,27 21,25 42,56 36,104z"/>
   <g>
    <path class="fil2" d="M256 218c2,-2 4,-3 6,-3 16,4 28,5 41,3 3,-1 6,1 6,4 1,3 -2,6 -4,7 -14,2 -29,1 -45,-3 -3,-1 -5,-4 -4,-7 0,0 0,-1 0,-1z"/>
    <path class="fil2" d="M145 253c1,-1 2,-2 4,-2 27,-6 39,-18 44,-24 1,-2 5,-3 7,-1 2,2 3,5 1,8 -7,9 -21,21 -50,27 -3,1 -6,-1 -6,-4 -1,-1 0,-3 0,-4z"/>
   </g>
   <path class="fil3" d="M139 282c1,0 13,-1 29,-6 21,-7 37,-18 48,-32 4,-6 12,-8 20,-6 32,10 71,18 113,-7 2,-1 3,-2 3,-4 6,-48 -15,-81 -37,-107 -5,-6 -6,-15 -2,-21 9,-15 12,-34 11,-56 -2,-17 -6,-29 -6,-29 0,-2 -2,-4 -5,-4 -28,0 -51,3 -70,9 -16,6 -35,3 -49,-7l0 0c-10,-7 -21,-14 -29,-12 -4,1 -6,4 -8,7 -10,20 -19,50 -9,78 0,1 0,2 0,2l-50 -33c-2,-2 -6,-1 -7,1 -2,3 -1,6 1,8l50 33c0,0 -1,0 -2,0 -29,2 -54,22 -69,39 0,1 -1,1 -1,2 -2,2 -2,5 -2,8 1,8 11,15 22,22l0 0c15,10 25,26 26,43 1,20 7,43 18,68 0,2 3,4 5,4zm-13 -73c-1,-20 -12,-39 -30,-51l-1 0c-3,-3 -16,-10 -16,-15 0,0 0,0 0,-1 20,-21 41,-33 61,-35 15,-1 24,4 25,5l3 1c1,9 8,48 -16,117 -1,3 1,6 4,7 3,1 6,-1 7,-3 19,-57 19,-94 17,-112l56 37 8 49c1,3 3,5 6,5 3,-1 5,-3 5,-6l-6 -39 75 50c3,2 6,1 8,-1 1,-3 1,-6 -2,-8l-75 -50 38 -10c3,0 5,-3 4,-6 0,-3 -3,-5 -6,-4l-49 11 -56 -37c18,-6 52,-20 97,-59 2,-2 2,-6 0,-8 -1,-2 -5,-2 -7,0 -55,48 -94,57 -102,58l-3 -1c-2,-2 -34,-30 -4,-91 0,-1 0,-1 1,-1 4,-1 15,7 19,10l1 0c17,12 39,15 59,9 16,-6 37,-9 62,-9 3,11 10,46 -5,72 -7,11 -5,24 3,34 20,25 39,53 35,96 -38,21 -72,15 -103,5 -12,-4 -25,0 -32,10 -18,24 -53,31 -65,32 -9,-23 -15,-43 -16,-61z"/>
   <g>
   </g>
   <g>
   </g>
   <g>
   </g>
   <g>
   </g>
   <g>
   </g>
   <g>
   </g>
   <g>
   </g>
   <g>
   </g>
   <g>
   </g>
   <g>
   </g>
   <g>
   </g>
   <g>
   </g>
   <g>
   </g>
   <g>
   </g>
   <g>
   </g>
  </g>
  <g id="_917460896">
   <path class="fil4" d="M764 333c-7,0 -16,1 -27,4 -12,4 -21,9 -28,13 2,-26 2,-33 2,-33 -1,-15 -4,-25 -7,-32 -11,-35 -39,-60 -48,-67 -9,7 -19,18 -28,33 -12,19 -18,37 -20,49 -1,0 -21,-21 -43,-35 -14,-10 -27,-15 -39,-19 -18,-6 -52,-15 -97,-14 2,43 15,73 24,90 5,11 11,23 22,36 17,19 41,36 42,36 -13,4 -32,10 -51,23 -14,10 -25,21 -32,30 9,7 37,32 75,40 7,1 19,4 34,3 0,0 8,-1 34,-5 -3,7 -7,16 -10,28 -2,10 -3,19 -3,26 11,0 45,-3 70,-27 14,-14 20,-29 23,-35 5,-13 6,-24 7,-42 18,-2 30,-4 43,-10 7,-3 22,-10 35,-24 23,-27 23,-59 22,-68z"/>
   <path class="fil5" d="M595 516c0,-7 0,-17 2,-27 3,-12 8,-22 11,-30 -28,5 -36,5 -36,5 -16,1 -28,-2 -36,-3 -36,-8 -64,-29 -76,-39 -11,8 -20,17 -26,25 9,7 37,32 75,40 7,1 19,4 34,3 0,0 8,-1 34,-5 -3,7 -7,16 -10,28 -2,10 -3,19 -3,26 11,0 45,-3 70,-27 2,-2 4,-4 5,-5 -19,8 -37,9 -44,9z"/>
   <path class="fil6" d="M737 337c-12,4 -21,9 -28,13 2,-26 2,-33 2,-33 -1,-15 -4,-25 -7,-32 -11,-35 -39,-60 -48,-67 -9,7 -19,18 -28,33 -12,19 -18,37 -20,49 -1,0 -21,-21 -43,-35 -14,-10 -27,-15 -39,-19 -18,-6 -52,-15 -97,-14 2,43 15,73 24,90 1,3 2,6 4,9 -1,-7 -2,-14 -2,-21 0,0 0,0 0,0 37,-1 64,6 80,12 9,3 20,7 32,15 6,4 11,8 16,12 9,7 22,4 26,-5 2,-6 5,-12 9,-18 4,-6 8,-11 11,-15 7,-8 18,-8 25,-1 10,10 21,25 27,44 2,5 5,14 6,26 0,0 0,1 0,2 -1,11 10,18 21,15 0,0 0,0 1,0 8,-3 16,-4 22,-4 0,3 0,10 -1,19 4,-3 8,-7 12,-11 23,-27 23,-59 22,-68 -7,0 -16,1 -27,4z"/>
   <g>
    <path class="fil2" d="M484 449c-1,0 -2,0 -4,-1 0,0 -2,-1 -3,-3 1,1 2,2 3,3l-1 0c-3,-2 -3,-6 -1,-9 2,-3 6,-4 9,-2 0,1 0,1 1,1l0 0c3,2 4,6 2,9 -2,1 -4,2 -6,2z"/>
    <path class="fil2" d="M546 469c0,0 0,0 0,0 -19,-1 -33,-5 -50,-12 -3,-1 -5,-5 -3,-8 1,-3 5,-5 9,-3 16,6 27,10 44,11 4,0 7,3 7,6 -1,4 -3,6 -7,6z"/>
   </g>
   <g>
    <path class="fil7" d="M513 249c3,1 7,2 10,3 1,0 2,1 3,1 3,-1 5,-2 6,-5 1,-3 0,-6 -4,-8 -4,-1 -7,-2 -11,-3 -4,-1 -7,0 -8,4 -2,3 0,7 4,8z"/>
    <path class="fil7" d="M681 439c10,-1 19,-4 28,-8 7,-3 23,-10 38,-26 23,-26 24,-57 24,-73 -1,-1 -1,-3 -3,-4 -1,-1 -3,-2 -5,-2 -9,1 -19,3 -28,5 -7,2 -13,5 -19,7 1,-16 1,-21 1,-21 -1,-16 -4,-27 -7,-34 -11,-34 -36,-58 -50,-70 -3,-2 -7,-2 -9,0 -12,10 -22,22 -29,35 -8,12 -14,26 -18,40 -9,-8 -22,-20 -35,-29 -3,-2 -7,-1 -9,2 -3,3 -2,7 1,9 19,12 36,29 41,34 0,0 1,1 1,1 1,1 4,2 6,1 3,-1 4,-2 5,-5 3,-16 10,-32 19,-47 6,-10 14,-19 22,-28 14,12 33,33 43,60 2,7 5,17 6,31 0,0 0,7 -2,32 0,2 1,5 3,6 2,1 5,1 7,0 8,-5 17,-9 27,-12 6,-1 12,-3 18,-3 0,15 -3,37 -21,57 -12,13 -27,20 -32,23 -11,4 -20,6 -34,8 0,-1 0,-2 0,-2 1,-11 0,-30 -1,-44 0,-9 -1,-16 -1,-20 0,-3 0,-5 0,-6 0,-1 0,-2 0,-2 0,0 0,0 0,0 0,0 0,0 0,0 -1,-2 -1,-4 -4,-6 -2,-1 -4,-1 -6,1 -4,1 -4,4 -4,6 0,1 1,2 1,4 0,0 0,0 0,1 0,12 2,42 2,59l-21 -18c-3,-2 -7,-2 -10,0 -2,3 -2,7 1,9l23 20c-17,2 -53,3 -67,4 -1,0 -1,0 -1,0 -2,0 -3,0 -4,0 -2,0 -5,0 -7,3 -1,2 -1,5 1,7 1,2 3,2 6,2 0,0 0,0 0,0 0,0 1,0 2,0 1,0 4,0 6,0 4,0 12,0 22,-1 1,0 3,0 5,0 14,0 31,-1 41,-2 1,0 2,-1 3,-1 -1,14 -3,22 -7,33 -2,5 -7,20 -21,32 -19,18 -42,24 -58,25 0,-6 1,-12 2,-18 2,-9 6,-18 10,-26 1,-2 1,-5 -1,-6 -1,-2 -4,-3 -6,-3 -26,4 -34,5 -34,5 -14,0 -25,-2 -32,-4 -30,-6 -54,-22 -67,-34 8,-9 17,-17 27,-24 14,-9 31,-17 48,-22 2,0 4,-2 5,-4 0,-3 -1,-5 -2,-6 0,0 -1,-1 -1,-1 -6,-4 -26,-19 -40,-35 -11,-13 -17,-24 -22,-34 -12,-25 -20,-53 -22,-82 14,-1 27,0 41,2 3,1 7,-1 7,-5 1,-3 -2,-7 -5,-7 -17,-2 -34,-3 -51,-3 -1,0 -3,1 -4,2 -2,1 -2,3 -2,5 2,34 10,65 24,93 5,10 12,23 24,37 10,12 23,23 32,30 -14,5 -27,12 -40,20 -13,9 -24,19 -34,31 -2,2 -2,6 1,8 13,12 42,34 78,42 7,1 20,4 36,3 0,0 6,0 23,-3 -2,6 -4,12 -6,19 -2,9 -3,18 -3,27 0,2 1,3 2,4 2,2 3,2 5,2 1,0 1,0 2,0 17,-1 48,-5 73,-29 15,-14 21,-31 24,-37 4,-11 6,-21 7,-33l84 72c2,1 3,2 5,2 2,0 4,-1 5,-2 2,-3 2,-7 -1,-9l-82 -70z"/>
    <path class="fil7" d="M587 374c2,0 3,-1 5,-2 2,-2 2,-6 -1,-9l-19 -16c-3,-2 -7,-2 -9,1 -3,2 -3,6 0,9l19 16c2,1 3,1 5,1z"/>
   </g>
   <g>
   </g>
   <g>
   </g>
   <g>
   </g>
   <g>
   </g>
   <g>
   </g>
   <g>
   </g>
   <g>
   </g>
   <g>
   </g>
   <g>
   </g>
   <g>
   </g>
   <g>
   </g>
   <g>
   </g>
   <g>
   </g>
   <g>
   </g>
   <g>
   </g>
  </g>
  <g id="_686703232">
   <g>
    <path class="fil8" d="M621 183c-4,-11 4,-22 17,-25 14,-3 27,3 31,14l2 5c35,-15 56,-33 56,-33 0,0 -13,-100 -126,-131 -71,-20 -127,8 -147,56 -20,48 4,98 74,117 35,10 67,10 95,5l-2 -8z"/>
    <path class="fil9" d="M625 195l5 -1 -4 -12c-1,-3 -1,-7 0,-10 2,-5 7,-9 14,-10 5,-1 10,-1 15,1 4,3 8,6 9,10l3 10 6 -3c36,-14 57,-32 58,-33l2 -1 -1 -2c0,-1 -3,-26 -21,-56 -10,-17 -24,-32 -39,-45 -20,-15 -43,-27 -70,-34 -34,-10 -68,-9 -96,3 -25,10 -44,29 -55,52l-47 -13 -3 8 47 13c-9,24 -7,48 5,68 13,23 39,41 74,50 32,9 65,11 98,5zm-9 -25c-2,4 -2,9 0,14l1 3c-9,2 -17,2 -26,3l-57 -94 73 20 24 40c-7,3 -12,8 -15,14zm44 -14c-6,-2 -12,-3 -19,-3l-20 -34 96 27c-7,6 -23,16 -43,25 -2,-7 -7,-12 -14,-15zm42 -64c11,19 17,37 19,46l-55 -15 27 -11 -5 -7 -36 14 -85 -23 103 -42c13,11 23,24 32,38zm-191 -73c25,-10 56,-11 88,-2 24,6 46,17 64,31l-110 44 -56 -15 46 -19 -5 -7 -55 22 -22 -6c10,-22 27,-38 50,-48zm-49 118c-11,-19 -13,-41 -5,-63l63 18 60 98c-17,-1 -34,-3 -50,-8 -32,-8 -56,-24 -68,-45z"/>
    <path class="fil9" d="M537 167c-27,-8 -47,-21 -56,-38l-10 4c11,19 33,33 62,41l4 -7z"/>
    <rect class="fil9" transform="matrix(2.20966 -0.885328 1.09086 1.79333 554.55 44.2191)" width="12.4482" height="4.19301"/>
   </g>
  </g>
  <g id="_686701120">
   <path class="fil10" d="M229 522l2 -7c1,-7 9,-12 16,-10l0 0c8,2 16,-4 17,-13l1 -24c0,-10 9,-16 18,-14l0 0c9,3 18,-5 17,-14l-1 -21c0,-10 1,-19 5,-27l7 -15c8,-15 -3,-33 -20,-34l-16 -1c-9,0 -18,-3 -26,-8l-18 -12c-8,-5 -18,-1 -21,8l0 0c-2,9 -12,14 -20,10l-22 -11c-8,-4 -18,0 -20,8l0 0c-2,7 -9,12 -16,10l-7 -2c-15,-4 -31,5 -35,20l-8 32c-1,4 -6,7 -10,6l0 0c-9,-3 -19,3 -21,12l-21 81c-4,15 5,31 21,35l80 21c10,2 19,-3 21,-12l0 0c2,-5 6,-7 10,-6l32 8c15,4 31,-5 35,-20z"/>
   <g>
    <path class="fil11" d="M192 549c10,3 19,1 27,-4 9,-4 14,-12 17,-21l2 -8c0,-3 4,-5 7,-4 6,2 12,1 18,-3 5,-4 8,-10 8,-16l1 -25c0,-2 1,-4 3,-5 2,-2 4,-2 6,-2 7,2 14,1 19,-4 5,-4 8,-11 8,-18l-2 -21c0,-8 1,-16 5,-23l7 -15c4,-9 4,-20 -1,-29 -6,-9 -15,-14 -25,-15l-16 -1c-8,-1 -16,-3 -23,-8l-18 -11c-6,-4 -13,-4 -19,-2 -6,3 -11,8 -13,14 0,3 -2,4 -4,5 -2,1 -4,1 -6,0l-22 -11c-6,-3 -13,-3 -18,0 -6,2 -10,7 -12,14 -1,3 -4,5 -7,4l-8 -2c-9,-3 -18,-1 -26,4 -9,4 -14,12 -17,21l-8 32c0,0 0,1 -1,1 0,0 0,0 0,0 -13,-4 -27,4 -30,17l-21 81c-2,7 -2,14 1,21l-20 12c-4,2 -5,6 -3,10 2,3 7,4 10,2l20 -12c5,6 11,9 18,11l81 21c13,3 26,-4 29,-17 1,-1 1,-1 1,-1 0,0 0,0 1,0l31 8zm-47 -11c-1,5 -6,8 -12,7l-80 -21c-4,-1 -6,-2 -9,-4l102 -60 44 11c4,1 8,-1 9,-5 1,-4 -2,-8 -5,-9l-30 -8 89 -52c4,-2 5,-7 3,-10 -2,-4 -6,-5 -10,-3l-26 15 7 -25c1,-4 -2,-8 -5,-9 -4,-1 -8,2 -9,6l-11 39 -91 53 5 -20c1,-4 -1,-8 -5,-9 -4,-1 -8,2 -9,5l-9 35 -56 33c-1,-3 -1,-6 0,-9l21 -81c1,-5 7,-8 12,-7 4,1 8,0 12,-2 3,-2 6,-5 7,-9l8 -32c2,-6 5,-10 10,-13 5,-3 10,-3 16,-2l7 2c5,1 11,0 16,-2 4,-3 8,-8 9,-13 1,-2 3,-4 4,-4 1,-1 3,-1 5,0l22 11c6,3 13,3 19,1 6,-3 11,-8 12,-15 1,-2 2,-4 4,-4 2,-1 5,-1 6,0l18 12c9,5 19,9 30,9l16 1c5,1 10,4 13,9 3,4 3,10 1,15l-7 15c-5,9 -7,20 -6,30l1 21c0,2 -1,5 -2,6 -2,1 -4,2 -6,1 -7,-1 -13,0 -19,4 -5,4 -8,10 -8,16l-1 25c-1,3 -2,4 -3,5 -2,1 -4,2 -6,1 -5,-1 -10,-1 -15,2 -5,3 -8,7 -9,13l-2 7c-2,6 -5,10 -10,13 -5,3 -10,3 -16,2l-32 -8c-4,-1 -8,-1 -12,1 -3,3 -6,6 -7,10z"/>
    <path class="fil11" d="M123 416c1,-4 -1,-8 -5,-9 -4,-1 -8,2 -9,6l-1 4c0,1 0,3 1,5 1,2 2,3 4,3 4,1 8,-1 9,-5l1 -4z"/>
   </g>
   <g>
   </g>
   <g>
   </g>
   <g>
   </g>
   <g>
   </g>
   <g>
   </g>
   <g>
   </g>
   <g>
   </g>
   <g>
   </g>
   <g>
   </g>
   <g>
   </g>
   <g>
   </g>
   <g>
   </g>
   <g>
   </g>
   <g>
   </g>
   <g>
   </g>
  </g>
 </g>
</svg>
