<svg xmlns="http://www.w3.org/2000/svg" version="1.1" xmlns:xlink="http://www.w3.org/1999/xlink" xmlns:svgjs="http://svgjs.com/svgjs" width="512" height="512" x="0" y="0" viewBox="0 0 514.961 514.961" style="enable-background:new 0 0 512 512" xml:space="preserve" class=""><g><g xmlns="http://www.w3.org/2000/svg"><path d="m513.48 391.092-5.175 7.352c-1.958 2.781-48.764 68.126-128.638 76.088-5.305.53-10.63.79-15.945.79-50.352.01-101.464-23.636-152.245-70.457-78.675.51-136.6-20.475-172.227-62.445-49.742-58.604-36.265-135.502-35.666-138.752l1.549-8.402 8.012-2.951c38.963-14.373 77.317-8.842 101.164-2.411-5.964-80.729 31.98-133.971 33.748-136.412l6.943-9.532 10.89 4.501c43.359 17.904 68.795 48.961 82.262 71.117 49.004-72.557 110.895-108.575 113.762-110.216l16.335-9.362 5.445 18.044c.939 3.101 20.69 70.227 5.645 155.477 25.316-7.172 65.518-12.863 109.586 2.801l11.549 4.111-1.728 12.143c-.42 2.961-10.18 66.816-70.963 121.618 21.949 11.273 53.439 32.708 71.652 68.856z" fill="#f28b44" data-original="#f28b44"></path><path d="m513.48 391.092-5.175 7.352c-1.958 2.781-48.764 68.126-128.638 76.088-5.305.53-10.63.79-15.945.79-50.352.01-101.464-23.636-152.245-70.457l166.772-404.865 5.445 18.044c.939 3.101 20.69 70.227 5.645 155.477 25.316-7.172 65.518-12.863 109.586 2.801l11.549 4.111-1.728 12.143c-.42 2.961-10.18 66.816-70.963 121.618 21.949 11.273 53.439 32.708 71.652 68.856z" fill="#f76937" data-original="#f76937"></path><g><path d="m350.165 301.031c-31.35 23.726-62.79 28.607-83.321 28.607-3.826 0-7.273-.17-10.27-.42-23.268 55.273-50.152 121.068-74.639 185.743l-14.446-5.481-13.577-5.151c19.232-50.812 39.942-102.304 59.234-148.895-30.221-8.792-47.815-24.946-57.625-37.989-12.818-17.054-15.555-32.648-15.825-34.368l29.612-4.641-.02-.16c.28 1.6 7.133 36.739 55.487 49.252 5.055-12.063 9.961-23.676 14.666-34.728-30.021-21.755-42.07-53.062-42.63-54.533l14.037-5.291 13.997-5.331c.1.25 8.122 20.635 26.805 36.619 22.129-51.422 37.355-85.22 37.684-85.97l13.098 5.922 14.216 6.431c-.38.85-20.231 44.91-47.555 109.036 15.575-.34 39.143-4.531 63-22.585z" fill="#b75e49" data-original="#b75e49"></path><g><path d="m350.165 301.031c-31.35 23.726-62.79 28.607-83.321 28.607-3.826 0-7.273-.17-10.27-.42-23.268 55.273-50.152 121.068-74.639 185.743l-14.446-5.481 134.941-325.267 14.216 6.431c-.38.85-20.231 44.91-47.555 109.036 15.575-.34 39.143-4.531 63-22.585z" fill="#993f33" data-original="#993f33"></path></g></g></g></g></svg>