<?xml version="1.0" encoding="UTF-8"?>
<!DOCTYPE svg PUBLIC "-//W3C//DTD SVG 1.1//EN" "http://www.w3.org/Graphics/SVG/1.1/DTD/svg11.dtd">
<!-- Creator: CorelDRAW X7 -->
<svg xmlns="http://www.w3.org/2000/svg" xml:space="preserve" width="500px" height="510px" version="1.1" style="shape-rendering:geometricPrecision; text-rendering:geometricPrecision; image-rendering:optimizeQuality; fill-rule:evenodd; clip-rule:evenodd"
viewBox="0 0 501 512"
 xmlns:xlink="http://www.w3.org/1999/xlink">
 <defs>
  <style type="text/css">
   <![CDATA[
    .fil0 {fill:#2B2A29}
    .fil4 {fill:#993F33}
    .fil3 {fill:#B75E49}
    .fil1 {fill:#F28B44}
    .fil2 {fill:#F76937}
   ]]>
  </style>
 </defs>
 <g id="Слой_x0020_1">
  <metadata id="CorelCorpID_0Corel-Layer"/>
  <path class="fil0" d="M190 501c0,0 0,0 0,0l-4 11 -35 -13 0 0 -13 -5 4 -10c10,-27 21,-53 31,-79 -51,-5 -101,-21 -135,-61 -22,-25 -33,-56 -37,-88 -1,-11 -1,-22 -1,-33 1,-6 1,-11 2,-16l0 -1 3 -14 13 -6 0 0c28,-10 58,-11 86,-5 0,-28 5,-55 15,-81 3,-10 8,-19 13,-28 1,-3 4,-8 7,-11l10 -16 20 7 0 0c29,13 53,33 72,58 18,-24 39,-46 62,-65 8,-8 17,-14 26,-20 13,-9 26,-17 39,-25l10 32c1,4 2,9 3,13 2,11 4,22 6,32 1,15 2,29 2,43 0,15 -1,30 -3,45 31,-6 63,-4 92,6l20 8 -4 19c0,4 -1,10 -2,13 -3,10 -6,20 -10,29 -11,25 -27,48 -46,68 24,15 45,35 58,61l7 14 -9 12c-2,5 -6,9 -10,13 -7,8 -16,16 -25,23 -27,22 -58,37 -93,40l-1 0 0 0c-5,0 -10,0 -15,0 -31,0 -59,-9 -86,-23 -14,-7 -28,-16 -41,-27 -11,27 -21,54 -31,80z"/>
  <g id="_1058207424">
   <path class="fil1" d="M488 382l-5 7c-2,3 -45,63 -120,71 -5,0 -10,0 -15,0 -46,0 -94,-22 -141,-65 -74,0 -127,-19 -161,-58 -46,-55 -33,-126 -33,-129l2 -8 7 -3c36,-13 72,-8 94,-2 -6,-75 30,-125 32,-127l6 -9 11 4c39,16 63,46 76,67 45,-68 103,-102 106,-103l15 -9 5 17c1,3 20,65 6,145 22,-7 60,-13 101,2l11 4 -2 11c0,3 -9,63 -66,113 21,11 50,31 67,64l4 8 0 0z" data-original="#f28b44"/>
   <path class="fil2" d="M488 382l-5 7c-2,3 -45,63 -120,71 -5,0 -10,0 -15,0 -46,0 -94,-22 -141,-65l155 -377 5 17c1,3 20,65 6,145 22,-7 60,-13 101,2l11 4 -2 11c0,3 -9,63 -66,113 21,11 50,31 67,64l4 8z" data-original="#f76937"/>
   <path class="fil3" d="M336 298c-29,22 -59,27 -78,27 -4,0 -7,0 -9,0 -22,51 -47,112 -69,172l-14 -4 -13 -5c18,-48 37,-96 55,-139 -28,-8 -44,-23 -53,-36 -12,-16 -15,-30 -15,-31l28 -4 0 -1c0,2 6,34 51,46 5,-11 10,-22 14,-33 -28,-19 -40,-49 -40,-50l13 -5 13 -5c0,0 8,19 25,34 20,-48 35,-79 35,-80l12 6 14 6c0,0 -19,41 -45,101 15,-1 37,-5 59,-21l17 22 0 0z" data-original="#b75e49"/>
   <path class="fil4" d="M336 298c-29,22 -59,27 -78,27 -4,0 -7,0 -9,0 -22,51 -47,112 -69,172l-14 -4 125 -303 14 6c0,0 -19,41 -45,101 15,-1 37,-5 59,-21l17 22 0 0z" data-original="#993f33"/>
  </g>
 </g>
</svg>
