<?xml version="1.0" encoding="UTF-8"?>
<!DOCTYPE svg PUBLIC "-//W3C//DTD SVG 1.1//EN" "http://www.w3.org/Graphics/SVG/1.1/DTD/svg11.dtd">
<!-- Creator: CorelDRAW X7 -->
<svg xmlns="http://www.w3.org/2000/svg" xml:space="preserve" width="600px" height="448px" version="1.1" style="shape-rendering:geometricPrecision; text-rendering:geometricPrecision; image-rendering:optimizeQuality; fill-rule:evenodd; clip-rule:evenodd"
viewBox="0 0 601 449"
 xmlns:xlink="http://www.w3.org/1999/xlink">
 <defs>
  <style type="text/css">
   <![CDATA[
    .fil0 {fill:#2B2A29}
    .fil7 {fill:#000304}
    .fil9 {fill:#4B4C4D}
    .fil1 {fill:#6D4A37}
    .fil13 {fill:#6F4B3B}
    .fil3 {fill:#865B52}
    .fil11 {fill:#9D6C5B}
    .fil12 {fill:#C5886F}
    .fil8 {fill:#F27CB6}
    .fil10 {fill:#F47DAD}
    .fil5 {fill:#F6BA84}
    .fil2 {fill:#F7BB86}
    .fil4 {fill:#FED3B4}
    .fil6 {fill:#FFD1B7}
   ]]>
  </style>
 </defs>
 <g id="Слой_x0020_1">
  <metadata id="CorelCorpID_0Corel-Layer"/>
  <g id="_923752576">
   <path class="fil0" d="M370 449c-5,0 -9,0 -13,-2 -5,-1 -9,-2 -12,-4 -3,-2 -6,-4 -9,-6 -1,0 -1,-1 -2,-1 -1,-2 -3,-3 -4,-4 -3,-5 -6,-10 -6,-15 -14,-1 -30,-3 -45,-7 -9,6 -18,12 -27,17 -8,5 -17,11 -26,14 -12,5 -23,8 -34,6 -3,0 -5,0 -7,-1 -2,-1 -3,-1 -4,-1 -4,-2 -8,-3 -12,-5 -4,-1 -8,-3 -12,-7 -1,-2 -2,-3 -3,-5 -16,4 -34,3 -47,-4 -2,-1 -4,-2 -7,-3 -14,-11 -12,-32 0,-43 2,-2 4,-3 6,-4 0,0 0,-1 0,-1 2,-3 5,-6 8,-10 1,-1 2,-3 3,-4 1,-1 1,-3 2,-4 -28,-4 -53,-14 -78,-32 -10,-8 -20,-18 -27,-29 -4,-2 -7,-6 -10,-11 -2,-4 -2,-9 -1,-13 -1,-4 -2,-8 -2,-12 -1,-5 -1,-10 -1,-14 1,-10 5,-19 14,-24 2,-1 4,-2 6,-3 5,-3 10,-5 16,-7 4,-1 12,-2 16,-3 2,-2 6,-7 8,-9 1,-1 1,-2 2,-3 -5,-7 -9,-14 -13,-21 -3,-6 -6,-12 -8,-17 -4,-12 -12,-30 -4,-41 1,-2 2,-4 3,-5 11,-11 26,-4 38,2 2,1 5,3 7,4 0,-3 1,-6 1,-9 1,-6 2,-13 3,-19 3,-12 7,-30 18,-36 11,-6 21,0 30,8 3,2 7,4 10,7 1,-3 2,-6 4,-9 4,-7 8,-15 13,-22 5,-9 12,-18 24,-18 8,0 14,5 20,11 2,2 5,5 7,7 1,2 3,4 5,6 2,-4 5,-7 8,-10 6,-6 12,-11 20,-11 10,0 18,8 24,16 0,0 0,0 0,1 2,1 3,3 4,4 3,-3 6,-6 9,-9 6,-6 14,-13 21,-18 8,-6 21,-15 32,-16 3,0 6,0 9,1 9,2 14,9 17,17 0,-1 1,-1 2,-1 1,0 2,-1 2,-1 6,-1 12,-3 18,-5 6,-2 13,-4 20,-6 5,-1 11,-2 16,-1 2,1 4,1 5,2 12,6 13,19 11,31 8,0 16,1 24,1 9,1 17,2 26,3 5,1 11,2 16,4 6,2 11,5 14,10 9,11 1,26 -5,38 8,1 17,3 26,5 6,2 14,4 20,9 3,2 6,5 8,9 4,9 1,20 -5,30 7,2 15,4 21,8 9,4 16,11 18,21 1,8 -3,16 -8,23 -4,6 -9,11 -13,17 0,0 0,0 0,0 6,3 12,9 15,16 3,9 -2,18 -6,26 -4,7 -9,14 -13,21 -3,4 -6,9 -9,13 2,2 4,5 6,8 4,5 7,11 7,17 1,11 -7,19 -15,25 -6,4 -13,9 -19,13 -4,2 -7,4 -11,6 2,3 4,7 5,10 3,7 5,14 4,21 -3,14 -18,16 -29,19 -11,2 -23,3 -34,4 -10,1 -21,3 -31,3 -6,12 -16,21 -29,25 -12,5 -33,8 -51,7z"/>
  </g>
  <g id="_923751232">
   <path class="fil1" d="M213 310l76 45c0,0 129,47 146,46 17,-2 90,-8 91,-14 2,-7 -19,-32 -19,-32 0,0 56,-30 55,-37 -1,-12 -21,-22 -21,-22 0,0 39,-54 37,-59 -5,-12 -32,-11 -32,-11 0,0 38,-41 37,-48 -3,-14 -55,-19 -55,-19 0,0 27,-26 22,-36 -4,-10 -69,-15 -69,-15 0,0 26,-38 23,-42 -9,-13 -90,-6 -90,-6 0,0 11,-35 5,-38 -4,-2 -68,26 -68,26 0,0 -1,-32 -11,-30 -10,2 -62,59 -62,59 0,0 -25,-37 -30,-37 -4,0 -34,38 -34,38 0,0 -18,-41 -26,-41 -9,0 -37,63 -37,63 0,0 -30,-34 -35,-31 -5,2 -11,28 -12,41 -2,13 -4,33 -4,33 0,0 -24,-7 -28,-10 -3,-2 -15,-12 -20,-8 -3,3 6,27 13,40 8,17 27,40 27,40l121 105 0 0z"/>
   <path class="fil2" d="M205 249l-65 87c0,0 -3,25 -7,31 -3,6 -29,32 -18,41 12,8 40,5 49,-7 10,-13 22,-38 22,-38 0,0 30,-11 39,-24 8,-13 11,-25 11,-31 0,-6 2,-21 1,-28 0,-7 -6,-33 -6,-33l-26 2 0 0z"/>
   <path class="fil3" d="M81 164c0,0 40,-16 65,-11 26,4 69,34 90,66 22,31 41,65 72,89 31,24 55,48 92,63 36,14 71,11 83,10 12,-1 40,0 40,-3 0,-3 -21,-39 -21,-39 0,0 55,-22 57,-27 2,-4 -25,-28 -25,-28 0,0 40,-49 39,-52 -1,-3 -41,-16 -41,-16 0,0 45,-36 45,-43 0,-8 -52,-15 -56,-22 -4,-6 26,-26 26,-31 0,-4 -79,-16 -80,-20 -2,-4 32,-33 30,-38 -2,-4 -58,-8 -71,-8 -14,0 -29,4 -32,0 -4,-3 22,-25 25,-31 3,-6 -29,6 -46,10 -17,5 -33,17 -37,12 -4,-5 12,-26 4,-27 -8,-1 -34,19 -42,28 -8,9 -23,25 -23,25 0,0 -18,-25 -20,-23 -2,3 -18,31 -23,32 -5,2 -34,-36 -37,-36 -3,0 -35,58 -35,58 0,0 -30,-26 -35,-28 -4,-1 -13,66 -13,66 0,0 -21,-2 -31,-5 -9,-4 -28,-16 -29,-10 -1,6 9,20 15,27 6,7 14,12 14,12l0 0z"/>
   <path class="fil4" d="M198 223c0,0 -20,-39 -62,-45 -42,-5 -64,39 -76,45 -11,5 -37,3 -40,24 -4,21 8,44 32,62 23,17 51,30 95,30 44,0 68,-37 72,-61 2,-11 2,-25 2,-25 0,0 31,-8 41,-46 10,-39 -26,-41 -44,-20 -16,19 -20,36 -20,36z"/>
   <path class="fil5" d="M263 368c0,0 -87,52 -79,57 8,4 15,8 35,0 20,-9 57,-34 57,-34 0,0 25,7 49,8 25,1 68,3 68,3l21 -26 -130 -30 -21 22 0 0z"/>
   <path class="fil6" d="M279 311c27,6 58,16 82,26 24,10 75,33 76,57 1,17 -12,28 -22,31 -11,4 -48,9 -62,2 -14,-7 -18,-20 0,-29 18,-10 42,-9 41,-18 -2,-8 -35,2 -64,-1 -26,-2 -59,-5 -59,-5 0,0 -22,20 -36,32 -16,14 -29,27 -49,21 -17,-5 -23,-15 -16,-22 7,-6 17,-13 19,-17 3,-3 7,-12 7,-12 0,0 -5,-5 -9,-10 -4,-5 -6,-9 -6,-9 0,0 25,-14 35,-24 9,-9 18,-25 18,-27 0,-1 18,0 45,5l0 0z"/>
   <path class="fil7" d="M142 238c0,10 4,21 17,21 13,0 15,-12 14,-23 -1,-11 -6,-20 -16,-20 -10,0 -16,11 -15,22l0 0z"/>
   <path class="fil8" d="M211 233c6,9 18,3 25,-6 8,-9 12,-18 6,-25 -7,-8 -19,1 -24,7 -5,6 -12,17 -7,24l0 0z"/>
   <path class="fil9" d="M46 270c0,0 14,-12 15,-19 0,-7 -7,-12 -20,-15 -13,-3 -22,-5 -23,9 -1,15 8,20 8,20 0,0 -2,4 -4,5 -1,1 -2,4 -1,6 2,5 5,3 7,2 2,0 5,-3 5,-3 0,0 7,20 22,25 15,6 28,-6 31,-9 4,-3 2,-13 -7,-9 -8,4 -7,8 -19,6 -12,-2 -14,-18 -14,-18l0 0z"/>
   <path class="fil10" d="M124 388c4,3 1,11 -1,13 -2,2 -7,8 -12,5 -5,-4 -2,-12 1,-15 4,-3 8,-6 12,-3l0 0z"/>
   <path class="fil10" d="M189 403c4,3 2,10 -2,14 -4,3 -12,9 -16,4 -6,-6 4,-14 6,-16 3,-2 8,-5 12,-2l0 0z"/>
   <path class="fil10" d="M207 411c4,3 1,8 -2,12 -5,4 -12,8 -16,5 -4,-4 3,-12 6,-14 3,-2 7,-7 12,-3l0 0z"/>
   <path class="fil10" d="M351 408c-4,3 -10,9 -5,14 5,5 13,-2 16,-4 2,-3 7,-8 3,-12 -4,-5 -10,-1 -14,2l0 0z"/>
   <path class="fil10" d="M362 429c4,4 10,0 15,-4 2,-2 5,-8 1,-11 -3,-3 -9,-1 -13,4 -5,4 -6,7 -3,11z"/>
   <path class="fil11" d="M172 119c-7,17 11,24 18,10 7,-15 13,-30 17,-44 3,-11 -5,-15 -12,-4 -7,11 -18,26 -23,38z"/>
   <path class="fil12" d="M266 106c-9,7 -31,32 -38,41 -11,15 8,28 18,15 10,-14 25,-40 30,-48 5,-7 -2,-15 -10,-8l0 0z"/>
   <path class="fil13" d="M283 82c-7,6 0,19 12,10 12,-8 18,-14 24,-20 6,-6 2,-13 -8,-9 -9,4 -21,12 -28,19z"/>
   <path class="fil11" d="M303 109c-14,11 2,28 14,18 12,-10 36,-33 44,-42 9,-9 4,-19 -9,-10 -11,7 -36,23 -49,34l0 0z"/>
   <path class="fil12" d="M292 180c-15,11 -1,29 15,15 17,-13 40,-33 50,-44 10,-10 1,-19 -12,-10 -10,7 -36,25 -53,39z"/>
   <path class="fil11" d="M399 142c-17,10 -6,25 8,18 10,-6 43,-28 48,-32 4,-4 1,-12 -7,-9 -9,3 -38,17 -49,23l0 0z"/>
   <path class="fil13" d="M384 98c-13,10 -1,26 11,17 9,-6 35,-34 39,-38 4,-5 0,-12 -7,-7 -6,5 -31,19 -43,28l0 0z"/>
   <path class="fil12" d="M440 163c-11,6 -100,55 -112,63 -16,10 -3,33 13,23 13,-9 101,-69 108,-74 11,-7 5,-20 -9,-12l0 0z"/>
   <path class="fil12" d="M392 256c-17,7 -8,25 7,20 15,-6 61,-25 72,-32 10,-6 5,-17 -4,-14 -10,3 -56,18 -75,26l0 0z"/>
   <path class="fil13" d="M473 184c-12,7 -3,19 8,14 8,-3 21,-10 26,-13 4,-4 3,-13 -7,-10 -7,2 -18,4 -27,9z"/>
   <path class="fil12" d="M434 295c-14,2 -10,23 4,20 18,-3 53,-14 59,-15 9,-2 11,-16 -6,-14 -15,2 -42,6 -57,9l0 0z"/>
   <path class="fil12" d="M462 334c-14,0 -14,18 1,18 11,0 18,0 25,-2 8,-1 9,-12 -2,-13 -7,-1 -16,-2 -24,-3l0 0z"/>
   <path class="fil11" d="M497 246c-10,4 -5,17 5,14 9,-3 17,-7 25,-11 6,-3 3,-13 -5,-11 -7,2 -18,5 -25,8l0 0z"/>
  </g>
 </g>
</svg>
