<?xml version="1.0" encoding="UTF-8"?>
<!DOCTYPE svg PUBLIC "-//W3C//DTD SVG 1.1//EN" "http://www.w3.org/Graphics/SVG/1.1/DTD/svg11.dtd">
<!-- Creator: CorelDRAW X7 -->
<svg xmlns="http://www.w3.org/2000/svg" xml:space="preserve" width="600px" height="776px" version="1.1" style="shape-rendering:geometricPrecision; text-rendering:geometricPrecision; image-rendering:optimizeQuality; fill-rule:evenodd; clip-rule:evenodd"
viewBox="0 0 600 776"
 xmlns:xlink="http://www.w3.org/1999/xlink"
 aria-hidden="true"
 role="img">
 <defs>
  <style type="text/css">
   <![CDATA[
    .fil0 {fill:#2B2A29}
    .fil7 {fill:#000304}
    .fil9 {fill:#4B4C4D}
    .fil1 {fill:#6D4A37}
    .fil13 {fill:#6F4B3B}
    .fil3 {fill:#865B52}
    .fil11 {fill:#9D6C5B}
    .fil12 {fill:#C5886F}
    .fil8 {fill:#F27CB6}
    .fil10 {fill:#F47DAD}
    .fil5 {fill:#F6BA84}
    .fil2 {fill:#F7BB86}
    .fil4 {fill:#FED3B4}
    .fil6 {fill:#FFD1B7}
   ]]>
  </style>
 </defs>
 <g id="Слой_x0020_1">
  <metadata id="CorelCorpID_0Corel-Layer"/>
  <g id="_684503056">
   <path class="fil0" d="M311 429c-1,0 -2,0 -2,0 -1,0 -2,0 -2,-1 -1,0 -1,0 -1,-1 -1,0 -1,0 -1,0 0,0 0,0 0,0 -1,-1 -1,-2 -1,-3 -3,0 -5,0 -7,-1 -2,1 -3,2 -4,3 -2,1 -3,1 -4,2 -2,1 -4,1 -6,1 0,0 0,0 -1,0 0,0 0,0 0,0 -1,-1 -2,-1 -2,-1 -1,0 -2,-1 -2,-1 0,0 0,-1 -1,-1 -2,1 -5,1 -7,-1 0,0 -1,0 -1,0 -2,-2 -2,-5 0,-7 0,0 1,0 1,0 0,0 0,0 0,0 0,-1 1,-1 1,-2 0,0 1,0 1,-1 0,0 0,0 0,0 -4,-1 -8,-2 -12,-5 -2,-1 -3,-3 -4,-5 -1,0 -1,-1 -2,-1 0,-1 0,-2 0,-3 0,0 0,-1 0,-1 0,-1 0,-2 0,-3 0,-1 0,-2 2,-3 0,0 0,-1 1,-1 0,0 1,0 2,-1 1,0 2,0 3,0 0,-1 1,-1 1,-2 0,0 0,0 0,0 -1,-1 -1,-2 -2,-3 0,-1 -1,-2 -1,-3 -1,-2 -2,-5 -1,-6 0,-1 1,-1 1,-1 2,-2 4,-1 6,0 0,0 0,1 1,1 0,-1 0,-1 0,-1 0,-2 0,-3 0,-4 1,-1 1,-4 3,-5 2,-1 3,0 5,1 0,0 1,1 1,1 0,0 1,-1 1,-1 1,-1 1,-2 2,-4 1,-1 2,-2 4,-2 1,0 2,1 3,1 0,1 0,1 1,2 0,0 0,0 1,0 0,0 0,-1 1,-1 1,-1 2,-2 3,-2 1,0 3,1 4,3 0,0 0,0 0,0 0,0 0,0 0,0 1,0 1,-1 2,-1 1,-1 2,-2 3,-3 1,-1 3,-2 5,-2 0,0 1,0 1,0 2,0 2,1 3,2 0,0 0,0 0,0 0,0 0,0 1,0 0,0 1,0 2,-1 1,0 2,0 3,0 1,-1 2,-1 3,-1 0,0 0,1 1,1 2,1 2,3 1,4 2,0 3,1 4,1 1,0 3,0 4,0 1,0 2,0 3,1 0,0 1,1 2,1 1,2 0,4 -1,6 1,0 3,1 4,1 1,0 2,1 3,1 1,1 1,1 1,2 1,1 1,3 0,4 1,1 2,1 3,2 1,0 2,1 3,3 0,1 -1,2 -2,3 0,1 -1,2 -2,3 0,0 0,0 0,0 1,1 2,1 3,2 0,2 -1,3 -1,5 -1,1 -2,2 -2,3 -1,0 -1,1 -2,2 1,0 1,1 1,1 1,1 1,2 1,3 0,1 -1,3 -2,3 -1,1 -2,2 -3,3 -1,0 -1,0 -2,0 1,1 1,2 1,2 1,1 1,2 1,3 -1,2 -3,3 -5,3 -1,0 -3,1 -5,1 -2,0 -3,0 -5,0 -1,2 -2,4 -4,4 -2,1 -5,1 -8,1z"/>
  </g>
  <g id="_684487568">
   <path class="fil1" d="M287 408l11 7c0,0 20,7 23,7 2,0 14,-1 14,-2 0,-1 -3,-5 -3,-5 0,0 9,-5 9,-6 -1,-2 -4,-3 -4,-3 0,0 6,-9 6,-9 -1,-2 -5,-2 -5,-2 0,0 6,-7 6,-8 -1,-2 -9,-3 -9,-3 0,0 4,-4 4,-5 -1,-2 -11,-2 -11,-2 0,0 4,-6 4,-7 -2,-2 -14,-1 -14,-1 0,0 1,-5 0,-6 0,0 -10,4 -10,4 0,0 0,-5 -2,-4 -1,0 -9,9 -9,9 0,0 -4,-6 -5,-6 -1,0 -5,6 -5,6 0,0 -3,-6 -4,-6 -2,0 -6,9 -6,9 0,0 -5,-5 -5,-5 -1,1 -2,5 -2,7 -1,2 -1,5 -1,5 0,0 -4,-1 -4,-2 -1,0 -3,-1 -3,-1 -1,0 1,4 2,6 1,3 4,6 4,6l19 17 0 0z"/>
   <path class="fil2" d="M285 398l-10 14c0,0 0,4 -1,5 0,1 -4,5 -3,6 2,1 7,1 8,-1 1,-2 3,-6 3,-6 0,0 5,-2 6,-4 2,-2 2,-4 2,-5 0,0 0,-3 0,-4 0,-1 -1,-5 -1,-5l-4 0 0 0z"/>
   <path class="fil3" d="M266 385c0,0 6,-2 10,-2 4,1 11,6 14,11 3,4 6,10 11,13 5,4 9,8 14,10 6,2 11,2 13,2 2,0 7,0 7,-1 0,0 -4,-6 -4,-6 0,0 9,-3 9,-4 0,-1 -4,-4 -4,-4 0,0 6,-8 6,-8 0,-1 -6,-3 -6,-3 0,0 7,-5 7,-7 0,-1 -8,-2 -9,-3 0,-1 4,-4 4,-5 0,0 -12,-2 -12,-3 0,0 5,-5 5,-6 -1,0 -9,-1 -12,-1 -2,0 -4,1 -4,0 -1,0 3,-4 3,-5 1,-1 -4,1 -7,2 -2,1 -5,2 -5,2 -1,-1 1,-4 0,-4 -1,-1 -5,3 -6,4 -2,1 -4,4 -4,4 0,0 -3,-4 -3,-4 0,1 -3,5 -4,5 0,0 -5,-6 -5,-6 -1,0 -6,10 -6,10 0,0 -4,-4 -5,-5 -1,0 -2,10 -2,10 0,0 -3,0 -5,0 -1,-1 -4,-3 -4,-2 -1,1 1,3 2,4 1,1 2,2 2,2l0 0z"/>
   <path class="fil4" d="M284 394c0,0 -3,-6 -9,-7 -7,0 -10,6 -12,7 -2,1 -6,1 -6,4 -1,3 1,7 5,10 3,2 8,4 14,4 7,0 11,-5 11,-9 1,-2 1,-4 1,-4 0,0 5,-1 6,-7 2,-6 -4,-7 -7,-3 -2,3 -3,5 -3,5z"/>
   <path class="fil5" d="M294 417c0,0 -13,8 -12,8 1,1 2,2 5,0 4,-1 9,-5 9,-5 0,0 4,1 8,2 4,0 10,0 10,0l4 -4 -20 -5 -4 4 0 0z"/>
   <path class="fil6" d="M297 408c4,1 9,2 12,4 4,1 12,5 12,9 0,2 -2,4 -3,5 -2,0 -8,1 -10,0 -2,-1 -3,-3 0,-5 3,-1 7,-1 6,-2 0,-2 -5,0 -9,-1 -4,0 -10,0 -10,0 0,0 -3,3 -5,5 -2,2 -5,4 -8,3 -2,-1 -3,-2 -2,-4 1,-1 2,-2 3,-2 0,-1 1,-2 1,-2 0,0 -1,-1 -1,-2 -1,0 -1,-1 -1,-1 0,0 4,-2 5,-4 1,-1 3,-4 3,-4 0,0 3,0 7,1l0 0z"/>
   <path class="fil7" d="M276 397c0,1 0,3 2,3 2,0 3,-2 2,-4 0,-1 -1,-3 -2,-3 -2,0 -3,2 -2,4l0 0z"/>
   <path class="fil8" d="M286 396c1,1 3,0 4,-1 1,-1 2,-3 1,-4 -1,-1 -3,0 -4,1 -1,1 -2,3 -1,4l0 0z"/>
   <path class="fil9" d="M261 402c0,0 2,-2 2,-3 0,-1 -1,-2 -3,-3 -2,0 -3,0 -4,2 0,2 2,3 2,3 0,0 -1,0 -1,1 0,0 0,0 0,0 0,1 1,1 1,1 0,0 1,-1 1,-1 0,0 1,3 3,4 2,1 4,-1 5,-1 0,-1 0,-2 -1,-2 -1,1 -1,2 -3,1 -2,0 -2,-2 -2,-2l0 0z"/>
   <path class="fil10" d="M273 420c0,0 0,2 0,2 -1,0 -2,1 -2,1 -1,-1 -1,-2 0,-3 0,0 1,-1 2,0l0 0z"/>
   <path class="fil10" d="M283 422c0,1 0,2 -1,2 0,1 -1,2 -2,1 -1,-1 1,-2 1,-3 0,0 1,0 2,0l0 0z"/>
   <path class="fil10" d="M286 423c0,1 0,2 -1,2 0,1 -2,1 -2,1 -1,-1 0,-2 1,-2 0,-1 1,-1 2,-1l0 0z"/>
   <path class="fil10" d="M308 423c-1,0 -2,1 -1,2 1,1 2,0 3,-1 0,0 1,-1 0,-1 -1,-1 -2,-1 -2,0l0 0z"/>
   <path class="fil10" d="M310 426c0,1 1,0 2,0 0,-1 1,-2 0,-2 0,-1 -1,0 -2,0 -1,1 -1,2 0,2z"/>
   <path class="fil11" d="M280 378c-1,3 2,4 3,2 1,-3 2,-5 3,-7 0,-2 -1,-2 -2,-1 -1,2 -3,4 -4,6z"/>
   <path class="fil12" d="M295 376c-2,1 -5,5 -6,7 -2,2 1,4 3,2 1,-2 4,-6 4,-8 1,-1 0,-2 -1,-1l0 0z"/>
   <path class="fil13" d="M297 372c-1,1 0,3 2,2 2,-1 3,-2 4,-3 1,-1 0,-2 -1,-2 -2,1 -4,2 -5,3z"/>
   <path class="fil11" d="M300 377c-2,1 1,4 3,2 2,-1 5,-5 6,-6 2,-1 1,-3 -1,-2 -2,1 -5,4 -8,6l0 0z"/>
   <path class="fil12" d="M299 388c-3,1 0,4 2,2 3,-2 6,-5 8,-7 1,-1 0,-3 -2,-1 -2,1 -6,3 -8,6z"/>
   <path class="fil11" d="M315 382c-2,1 -1,4 2,2 1,0 6,-4 7,-4 1,-1 0,-2 -1,-2 -1,1 -6,3 -8,4l0 0z"/>
   <path class="fil13" d="M313 375c-2,2 0,4 2,3 1,-1 5,-6 6,-6 0,-1 0,-2 -1,-1 -1,0 -5,3 -7,4l0 0z"/>
   <path class="fil12" d="M322 385c-2,1 -16,8 -18,10 -2,1 0,5 2,3 2,-1 16,-10 17,-11 2,-1 1,-3 -1,-2l0 0z"/>
   <path class="fil12" d="M314 399c-2,1 -1,4 1,3 3,0 10,-3 11,-4 2,-1 1,-3 0,-3 -2,1 -9,3 -12,4l0 0z"/>
   <path class="fil13" d="M327 388c-2,1 -1,3 1,2 1,0 3,-1 4,-2 1,0 0,-2 -1,-1 -1,0 -3,0 -4,1z"/>
   <path class="fil12" d="M321 405c-2,1 -2,4 0,4 3,-1 9,-3 10,-3 1,0 1,-2 -1,-2 -3,0 -7,1 -9,1l0 0z"/>
   <path class="fil12" d="M325 412c-2,-1 -2,2 0,2 2,0 3,0 4,0 1,0 1,-2 0,-2 -1,0 -3,0 -4,0l0 0z"/>
   <path class="fil11" d="M330 398c-1,0 0,2 1,2 2,0 3,-1 4,-2 1,0 1,-2 -1,-1 -1,0 -2,0 -4,1l0 0z"/>
  </g>
 </g>
</svg>
