<?xml version="1.0" encoding="UTF-8"?>
<!DOCTYPE svg PUBLIC "-//W3C//DTD SVG 1.1//EN" "http://www.w3.org/Graphics/SVG/1.1/DTD/svg11.dtd">
<!-- Creator: CorelDRAW X7 -->
<svg xmlns="http://www.w3.org/2000/svg" xml:space="preserve" width="500px" height="461px" version="1.1" style="shape-rendering:geometricPrecision; text-rendering:geometricPrecision; image-rendering:optimizeQuality; fill-rule:evenodd; clip-rule:evenodd"
viewBox="0 0 500 461"
 xmlns:xlink="http://www.w3.org/1999/xlink">
 <defs>
  <style type="text/css">
   <![CDATA[
    .fil0 {fill:#2B2A29}
    .fil4 {fill:#009846}
    .fil5 {fill:#E6001F}
    .fil1 {fill:#FFA81E}
    .fil3 {fill:#FFD92D}
    .fil2 {fill:#FFE571}
   ]]>
  </style>
 </defs>
 <g id="Слой_x0020_1">
  <metadata id="CorelCorpID_0Corel-Layer"/>
  <path class="fil0" d="M192 95c-1,-6 -1,-11 0,-16 1,-17 5,-35 15,-49l0 0 1 0c9,-14 23,-24 39,-28l0 -1 0 0c6,-1 11,-1 16,-1l1 0 0 0c25,1 45,24 44,49 -1,14 -9,26 -20,34 6,4 12,7 19,7l0 0c105,10 193,69 193,187 0,102 -83,184 -184,184 -12,0 -23,-1 -34,-4 -10,2 -19,3 -29,3 -11,0 -22,-1 -32,-3 -12,2 -25,4 -37,4 -101,0 -184,-81 -184,-183 0,-102 83,-183 184,-183 3,0 5,0 8,0z"/>
  <g id="_1051566096">
   <path class="fil1" d="M298 111c5,-1 12,-1 18,-1 94,0 169,75 169,167 0,93 -75,168 -169,168 -13,0 -23,-1 -35,-4l17 -330z"/>
   <path class="fil2" d="M224 440c-12,3 -28,5 -40,5 -94,0 -169,-75 -169,-167 0,-93 75,-168 169,-168 12,0 22,1 32,4l8 326z"/>
   <path class="fil3" d="M296 115c72,19 126,84 126,161 0,93 -76,168 -169,168 -93,0 -168,-75 -168,-168 0,-79 55,-145 129,-162l82 1 0 0z"/>
   <path class="fil4" d="M264 77c8,16 24,28 42,28l11 1 -8 7c-3,3 -7,6 -10,8 -10,4 -20,6 -30,6 -10,0 -18,-1 -27,-1 -5,-1 -12,-1 -18,-3 -8,-2 -14,-7 -15,-16 0,-2 0,-4 -1,-7 -1,-7 -2,-13 -1,-20 1,-14 5,-29 13,-41 7,-10 18,-19 31,-23 4,-1 7,-1 12,-1 17,1 30,16 29,33 0,15 -14,27 -28,29l0 0z"/>
  </g>
  <g id="_913309392">
   <polygon class="fil5" points="193,248 161,248 177,224 193,199 209,224 225,248 "/>
   <polygon class="fil5" points="323,248 291,248 307,224 323,199 339,224 355,248 "/>
   <path class="fil5" d="M376 291l-26 21c-1,1 -1,2 -2,4l-5 18 -22 -3c-3,0 -6,1 -8,3l-13 17 -20 -9c-3,-2 -6,-2 -8,0l-20 13 -18 -13c-3,-2 -6,-2 -8,-1l-21 9 -12 -16c-2,-1 -5,-3 -8,-2l-21 2 -6 -19c-1,-2 -2,-4 -4,-5l-25 -19c-4,-3 -9,-2 -12,2 -3,4 -2,9 2,11l23 18 7 23c2,4 5,6 9,5l24 -1 14 17c1,3 6,4 10,3l22 -10 19 13c1,1 3,2 5,2 1,0 3,-1 5,-2l20 -13 21 10c4,2 8,1 10,-3l15 -17 25 4c3,1 8,-2 9,-6l7 -24 23 -19c3,-2 4,-8 1,-12 -3,-4 -9,-4 -12,-1l0 0z"/>
  </g>
 </g>
</svg>
