<?xml version="1.0" encoding="iso-8859-1"?>
<!-- Generator: Adobe Illustrator 19.0.0, SVG Export Plug-In . SVG Version: 6.00 Build 0)  -->
<svg version="1.1" id="Layer_1" xmlns="http://www.w3.org/2000/svg" xmlns:xlink="http://www.w3.org/1999/xlink" x="0px" y="0px"
	 viewBox="0 0 512 512" style="enable-background:new 0 0 512 512;" xml:space="preserve">
<path style="fill:#FFA81E;" d="M308.025,123.056c6.589-0.71,13.285-1.074,20.064-1.074C429.66,121.982,512,203.788,512,304.701
	s-82.339,182.718-183.911,182.718c-13.781,0-25.209-0.73-38.125-3.585L308.025,123.056z"/>
<path style="fill:#FFE571;" d="M227.033,482.952c-12.23,2.547-30.131,5.179-43.123,5.179C82.339,488.13,0,406.325,0,305.411
	s82.339-182.718,183.911-182.718c12.203,0,24.129,1.181,35.668,3.434L227.033,482.952z"/>
<path style="fill:#FFD92D;" d="M306.081,127.293c78.897,20.571,137.097,91.906,137.097,176.745
	c0,100.913-82.339,182.718-183.911,182.718S75.355,404.952,75.355,304.038c0-86.431,60.401-158.846,141.555-177.85L306.081,127.293z
	"/>
<path style="fill:#77DD00;" d="M264.523,82.268c15.802-0.094,32.397-11.972,33.172-27.595c0.802-16.187-11.757-29.957-28.048-30.754
	c-29.204-1.429-54.403,28.115-56.28,65.988c-0.352,7.092,0.14,13.973,1.362,20.484c0.488,2.603,0.92,5.217,1.242,7.847
	c0.495,4.063,2.804,11.51,12.89,13.882c14.118,3.322,39.612,3.597,47.125,3.597c27.03,0,41.24-13.564,41.24-13.564
	C292.347,120.935,271.88,104.445,264.523,82.268z"/>
<g>
	<polygon style="fill:#E6001F;" points="193.662,272.818 158.532,272.818 176.098,246.206 193.662,219.594 211.229,246.206 
		228.794,272.818 	"/>
	<polygon style="fill:#E6001F;" points="335.897,272.818 300.765,272.818 318.331,246.206 335.897,219.594 353.462,246.206 
		371.026,272.818 	"/>
	<path style="fill:#E6001F;" d="M393.341,319.749l-27.344,22.337c-1.474,1.203-2.541,2.834-3.054,4.666l-5.82,20.785l-23.689-4.28
		c-3.356-0.606-6.766,0.681-8.883,3.35l-14.646,18.453l-21.059-10.237c-2.902-1.412-6.327-1.206-9.04,0.538l-21.669,13.932
		l-19.544-14.047c-2.703-1.942-6.239-2.282-9.262-0.889l-22.506,10.365l-13.233-17.548c-1.915-2.538-4.998-3.919-8.166-3.644
		l-24.069,2.055l-5.95-20.115c-0.569-1.926-1.751-3.615-3.366-4.809l-28.113-20.796c-4.105-3.037-9.894-2.169-12.928,1.935
		c-3.036,4.104-2.17,9.891,1.935,12.927l25.625,18.956l7.209,24.376c1.245,4.207,5.28,6.953,9.65,6.588l26.49-2.261l14.64,19.413
		c2.617,3.47,7.298,4.649,11.246,2.83l24.379-11.228l20.277,14.575c1.609,1.155,3.501,1.737,5.396,1.737
		c1.735,0,3.472-0.488,4.998-1.468l22.59-14.522l23.058,11.209c3.897,1.893,8.587,0.828,11.28-2.567l15.817-19.93l26.521,4.793
		c4.693,0.853,9.258-2.011,10.544-6.604l7.299-26.069l25.079-20.487c3.953-3.23,4.54-9.053,1.31-13.006
		C403.117,317.106,397.295,316.52,393.341,319.749z"/>
</g>
<g>
</g>
<g>
</g>
<g>
</g>
<g>
</g>
<g>
</g>
<g>
</g>
<g>
</g>
<g>
</g>
<g>
</g>
<g>
</g>
<g>
</g>
<g>
</g>
<g>
</g>
<g>
</g>
<g>
</g>
</svg>
