<svg xmlns="http://www.w3.org/2000/svg" version="1.1" xmlns:xlink="http://www.w3.org/1999/xlink" xmlns:svgjs="http://svgjs.com/svgjs" width="512" height="512" x="0" y="0" viewBox="0 0 64 64" style="enable-background:new 0 0 512 512" xml:space="preserve" class=""><g><g xmlns="http://www.w3.org/2000/svg"><g id="color_expand"><path d="m10.9 41.6c-2.7-.5-5.5.9-6.7 3.4-.3-.3-.6-.6-.8-1-1-1.9-.2-4.3 1.7-5.2.1 0 .2-.1.3-.1.2-.1.3-.2.5-.2 1.8-.8 3.8 0 4.6 1.8 0 0 0 .1.1.1.2.4.3.8.3 1.2z" fill="#62361b" data-original="#62361b"></path><path d="m4.2 45c1.2-2.5 4-3.9 6.7-3.4.1.1.2.2.3.4-.5.6-1 1.7.6 3.3 0 0 .1.1.4.2-.1.9-.6 1.8-1.3 2.4l-.4 1.2c.1.1 0 .3-.1.4s-.3 0-.4-.1l-1.1-.4c-1.8.3-3.6-.7-4.3-2.3-.3-.5-.4-1.1-.4-1.7z" fill="#f7d7a9" data-original="#f7d7a9"></path><path d="m10.9 48.3-.4 1.2c.1.1 0 .3-.1.4s-.3 0-.4-.1l-1.1-.4c-1.8.3-3.6-.7-4.3-2.3-.2-.5-.4-1.1-.4-1.6.3-.6.6-1.1 1-1.5.1.4.2.8.4 1.2.7 1.7 2.5 2.7 4.3 2.3l1.1.4c0 .1.1.2.3.2-.1 0-.3.1-.4.2z" fill="#b9a17f" data-original="#b9a17f"></path><path d="m20.4 29c-2.1 1.9-7.6 4-9.3 2s1.2-7.5 3.3-9.4c1.8-1.8 4.8-1.8 6.6 0 .1.1.2.2.2.2 1.7 2.3 1.3 5.4-.8 7.2zm-5.6-2.7c-.3 0-.6.6-.6 1.3s.3 1.3.6 1.3.6-.6.6-1.3-.3-1.3-.6-1.3z" fill="#f7e894" data-original="#f7e894"></path><path d="m24.5 8.7c1.4.4 2.1 2.3 1.6 4.2-.6 1.7-2.1 2.9-3.8 3.2-.5-.2-1-.3-1.4-.4-.6-.8-.1-2.6.3-4.2.5-1.9 2-3.2 3.3-2.8z" fill="#de5b00" data-original="#de5b00" class=""></path><path d="m22.7 13.9c.1-.5.2-1.1.4-1.5l.1-.3c.1-.6.4-1.1.9-1.4.3.6.3 1.2.1 1.8-.3.6-.9 1.1-1.5 1.4z" fill="#281406" data-original="#281406"></path><path d="m61.3 20c-10.9-7.6-8.5 6.4-8.5 6.4 14.5 33-12.1 33-12.1 33v-.1c4.6-2.5 7.4-7.4 7.3-12.6 0-7.1-4.3-14-10.4-15.1l1.9-.1c-5.5-6.6-5.4-14.3-4.6-18.9.4-2.5 1.6-4.8 3.4-6.6 16.2-16.6 23 14 23 14z" fill="#de5b00" data-original="#de5b00" class=""></path><path d="m58 10.5c-3.7-4.8-9.2-7.2-16.7.4-1.8 1.8-2.9 4.1-3.4 6.6-.8 4.6-.3 9.3 1.4 13.6-5.3-6.5-5.1-14.1-4.4-18.6.4-2.5 1.6-4.8 3.4-6.6 9.8-10 16.2-2.7 19.7 4.6z" fill="#d8722e" data-original="#d8722e" class=""></path><path d="m52.8 26.3c14.5 33-12.1 33-12.1 33v-.1c4.6-2.5 7.4-7.4 7.3-12.6 0-.5 0-1-.1-1.6 1.7-4.2 1.9-10.2-1.2-18.9-1.1-3.1-1.1-6.4-.1-9.5 1.6-4.8 3.3-12 .7-15.6 9.7 0 14 19 14 19-10.9-7.7-8.5 6.3-8.5 6.3z" fill="#a74400" data-original="#a74400"></path><path d="m22.9 44.2-.3-.1c-3.1 4.3-8.9 2.2-10.4 1.5-.3-.1-.4-.2-.4-.2-1.6-1.7-1.1-2.8-.6-3.3.2-.2.4-.3.6-.5 10.9 0 10.9-8.9 10.9-8.9-6 6.3-14.5 1.3-14.5 1.3-3.1-3.6.3-12.6 4-16.1 2.2-2.1 5.6-2.7 8.7-2.1.1.2.3.3.6.4s.6.1.9 0c.7.2 1.4.5 2 .9 1.1.7 1.9 1.8 2.1 3 .8 3.4 2.7 6.4 5.4 8.6 1.6 1.4 3.6 2.4 5.8 2.8 6.1 1.1 10.4 8 10.4 15.1.1 5.2-2.7 10.1-7.3 12.6-1.7.9-3.5 1.3-5.4 1.3h-18.2c-.3 0-.6-.3-.6-.6v-2.5c0-.3.2-.6.6-.6h6.7c-2.9-3.6-3.3-8.6-1-12.6zm-2.5-15.2c2.1-1.8 2.4-4.9.8-7.1-1.7-2-4.6-2.2-6.6-.5-.1.1-.2.1-.2.2-2.1 1.9-4.9 7.4-3.3 9.4s7.3-.1 9.3-2z" fill="#de5b00" data-original="#de5b00" class=""></path><path d="m48 46.6c0 .6 0 1.3-.1 1.9-.7-6.3-4.8-12-10.3-13-2.1-.4-4.1-1.4-5.8-2.8-2.7-2.2-4.6-5.2-5.4-8.6-.2-1.3-1-2.4-2.1-3-.6-.4-1.3-.7-2-.9-.3.1-.6.1-.9 0-.2-.1-.4-.2-.6-.4-3.1-.6-6.6 0-8.7 2-2.6 2.8-4.3 6.2-5 10-1-4.3 1.9-11 5-14 2.2-2.1 5.6-2.7 8.7-2.1.1.2.3.3.6.4s.6.1.9 0c.7.2 1.4.5 2 .9 1.1.7 1.9 1.8 2.1 3 .8 3.4 2.7 6.4 5.4 8.6 1.6 1.4 3.6 2.4 5.8 2.8 6.1 1.2 10.4 8.1 10.4 15.2z" fill="#d8722e" data-original="#d8722e" class=""></path><g fill="#a74400"><path d="m22.2 44.7c-3.2 3.5-8.5 1.6-10 .9-.3-.1-.4-.2-.4-.2-1.6-1.7-1.1-2.8-.6-3.3.2-.2.4-.3.6-.5 1 0 2-.1 2.9-.3.1.8.5 1.5 1.1 2.1 0 0 .1.1.4.2 1.8.8 3.9 1.2 6 1.1z" fill="#a74400" data-original="#a74400"></path><path d="m48 46.6c.1 5.2-2.7 10.1-7.3 12.6-1.7.9-3.5 1.3-5.4 1.3h-18.1c-.3 0-.6-.3-.6-.6v-2.5c0-.3.2-.6.6-.6h6.7c-.3-.4-.6-.8-.8-1.2h7.3c1.9 0 3.7-.5 5.4-1.3 4.6-2.5 7.4-7.4 7.3-12.6 0-3.2-.8-6.3-2.5-9.1 4.4 2.4 7.4 8.1 7.4 14z" fill="#a74400" data-original="#a74400"></path></g></g><g id="stroke_expand" fill="#18150f"><path d="m2.5 44.5c.2.4.4.7.7 1 .1.5.2 1.1.5 1.6.8 2 2.9 3.2 5.1 3l.7.2c.4.3 1 .4 1.4.2l-.4-.7.4.7c.5-.2.7-.7.7-1.2l.2-.7c.5-.5.8-1 1-1.6 2.2.8 5.3 1.3 7.9 0-.7 3-.3 6.2 1.2 8.8h-4.8c-.9 0-1.6.7-1.6 1.6v2.6c0 .9.7 1.6 1.6 1.6h19.3c.2 0 .3 0 .5-.1 1.3-.2 2.6-.6 3.8-1.2.8 0 10.1-.2 14.8-7.4 4-6.1 3.4-15.1-1.8-26.9-.3-1.6-.5-6 1.2-7.1 1.1-.7 3.1 0 5.7 1.8.5.3 1.1.2 1.4-.2.2-.2.2-.5.2-.8-.1-.7-3.8-16.9-12.5-19.4-3.8-1.1-7.9.6-12.1 4.9-1.9 2-3.2 4.5-3.6 7.2-.7 4-1 11.4 3.7 18.1-1.9-.4-3.7-1.3-5.1-2.6-2.6-2-4.4-4.8-5.1-8-.3-1.5-1.3-2.9-2.6-3.7h-.1c1.1-.7 1.9-1.7 2.3-3 .6-2.5-.4-4.9-2.3-5.5-.8-.2-1.6-.1-2.3.3-1.2.7-2 1.9-2.3 3.3l-.1.3c-.3 1-.5 1.9-.5 2.9-3-.4-5.9.5-8.2 2.5-3 3-5.7 8.9-5.5 13.5-.1 0-.2 0-.3 0-.9.3-1.2 1.4-.9 2.6.2.7.6 1.2 1.1 1.6.2.1.4.2.7.2s.6-.1.8-.3l.2.2c.1 0 7.3 4.3 13.5.4-.9 2.3-3.2 5.3-9.3 5.3 0-.2-.1-.4-.2-.5-.5-1.2-1.5-2.1-2.7-2.5-.8-.3-1.6-.3-2.4-.1-.1-.2-.1-.4 0-.5.3-.5.1-1.1-.4-1.4-.3-.2-.7-.2-1 0l-.8.4s-.2.1-.3.3c-.4.7-.4 1.6-.1 2.4-1.7 1.4-2.3 3.9-1.3 5.9zm33.4-31.8c.4-2.3 1.5-4.4 3.1-6.1 3.7-3.8 7.1-5.2 10.1-4.4 5.8 1.6 9.2 11 10.6 15.5-2.4-1.3-4.3-1.4-5.8-.5-3.2 2-2.2 8.5-2 9.2 0 .1 0 .2.1.2 4.9 11.2 5.6 19.6 2 25.1-2.5 3.8-6.6 5.4-9.6 6.1 3-3 4.7-7 4.7-11.2 0-6.7-3.5-12.8-8.5-15.2 0-.3-.1-.5-.2-.7-5.2-6.1-5.3-13.2-4.5-18zm-13.8-.6.1-.3c.2-.8.6-1.5 1.3-2 .2-.1.4-.2.6-.2h.2c.7.2 1.2 1.5.9 3-.3.9-.9 1.6-1.8 2-.3.2-.7.3-1 .4-.3-.1-.5-.2-.8-.2.1-.8.2-1.8.5-2.7zm-10 30.4c11.4-.2 11.6-9.8 11.6-9.9 0-.6-.4-1-1-1-.3 0-.5.1-.7.3-5.1 5.3-12 1.8-13.1 1.2-2.5-3.2.6-11.4 4-14.6 2.1-1.8 4.9-2.4 7.5-1.9.2.2.5.3.8.4.2.1.5.1.7.1h.3c.6.2 1.1.5 1.6.8.9.5 1.5 1.4 1.7 2.4.8 3.6 2.9 6.8 5.8 9.1 1.8 1.5 3.9 2.6 6.2 3.1 5.4 1 9.6 7.2 9.6 14.1 0 7.2-5.2 13-11.7 13h-17.8v-1.8h6.3c.1 0 .2 0 .4-.1 0 0 .1 0 .1-.1.1 0 .1-.1.2-.1s.1-.1.1-.2c0 0 .1-.1.1-.2s0-.1.1-.2c0-.1 0-.1 0-.2 0 0 0 0 0-.1v-.1c0-.1 0-.1 0-.2s-.1-.1-.1-.2c0 0 0-.1-.1-.1-1.4-1.8-2.2-4-2.2-6.4-.1-5.3 4-9.6 9.3-9.8.6 0 1-.4 1-1s-.4-1-1-1c-3.8 0-7.2 2-9.3 5.1-.2.1-.5.2-.6.4-2.8 4-8.4 1.5-9.4 1-.4-.4-.7-.9-.7-1.4-.1 0 .1-.2.3-.4zm-1.1 3.5c-.2.5-.4.9-.8 1.2-.1.1-.2.3-.3.4l-.2.6-.6-.2c-.1 0-.3 0-.5 0-1.3.2-2.6-.5-3.1-1.8-.2-.3-.3-.7-.3-1 .9-1.7 2.7-2.7 4.6-2.7 0 .1-.1.2-.1.3-.1 1.2.4 2.4 1.3 3.2zm-5.2-6.4-.4-.8.4.8c.7-.4 1.6-.5 2.4-.3.6.2 1 .6 1.3 1.2-2.1 0-4.1 1-5.4 2.7-.4-1.5.4-3 1.7-3.6z" fill="#18150f" data-original="#18150f" class=""></path><path d="m18.2 19.3c-1.6-.1-3.2.5-4.5 1.6-2.1 1.9-5.6 8-3.4 10.8.6.7 1.6 1.2 2.5 1.2h.4c2.8-.2 5.6-1.3 7.8-3.1 2.5-2.2 2.8-5.9.9-8.5-.9-1.2-2.2-1.9-3.7-2zm1.6 9c-1.9 1.6-4.3 2.5-6.7 2.6-.4 0-.8-.2-1.1-.4-1.1-1.3 1.1-6.1 3.2-8 .7-.7 1.7-1.1 2.7-1.1h.3c.9.1 1.8.5 2.4 1.2 1.1 1.7.9 4.2-.8 5.7z" fill="#18150f" data-original="#18150f" class=""></path><path d="m14.8 25.3c-.9 0-1.6 1-1.6 2.3s.7 2.3 1.6 2.3 1.6-1 1.6-2.3-.7-2.3-1.6-2.3z" fill="#18150f" data-original="#18150f" class=""></path></g></g></g></svg>